$MeshFormat
2.2 0 8
$EndMeshFormat
$Nodes
431
0 -35.691025 15.805633 22.55591
1 -35.691025 15.805633 31.197268
2 -35.691025 15.805633 44.944088
3 106.362976 34.494095 9.017905
4 -35.691025 29.194366 22.55591
5 -35.691025 29.194366 35.92551
6 -35.691025 29.194366 44.87283
7 -27.292799 30.036114 37.409184
8 -23.697931 14.603576 22.55728
9 -22.566854 23.584469 22.556742
10 -20.912838 30.67557 22.557598
11 -20.644854 14.297568 34.570698
12 -18.398296 14.072397 44.942116
13 -17.431492 31.024502 44.942005
14 -15.241544 23.949265 44.942287
15 -2.060235 15.807735 25.130167
16 -2.060235 15.807735 33.95456
17 -2.060235 15.807735 42.55186
18 -2.060235 29.192265 22.557735
19 -2.060235 29.192265 32.95131
20 -2.060235 29.192265 44.942265
21 -2.0573425 16.857742 44.940784
22 -2.057254 16.48085 22.559263
23 -2.0563054 12.434454 22.559752
24 -2.0563054 12.434454 31.819025
25 -2.0563054 12.434454 44.94025
26 -2.0563054 32.565544 34.70734
27 -2.0563054 32.565544 44.94025
28 76.2723 23.905573 0.06617732
29 1.2548722 15.80608 22.560078
30 1.2553173 15.807735 44.942265
31 107.62561 10.1947975 36.838432
32 10.916732 15.801252 22.566904
33 13.0393095 29.192265 44.942265
34 16.049465 29.199669 32.82003
35 17.103672 15.807735 44.942265
36 19.41532 15.806109 37.116337
37 19.799147 29.203186 22.57318
38 71.847336 37.44725 24.8674
39 86.47597 44.931686 11.576681
40 31.788324 29.209175 22.58165
41 115.832146 9.757636 36.301212
42 31.799334 29.198166 37.13807
43 31.800556 6.670262 37.34096
44 120.82226 23.677282 36.913837
45 31.802608 36.678673 32.51731
46 31.805235 0.057735026 22.557735
47 31.805235 0.057735026 31.690172
48 31.805235 0.057735026 44.942265
49 31.805235 7.103733 44.942265
50 31.805235 15.807735 44.942265
51 31.805235 29.192265 44.942265
52 31.805235 44.942265 22.557735
53 31.805235 44.942265 44.942265
54 57.556404 34.65494 23.205988
55 58.88062 36.04568 36.456905
56 38.299973 38.68428 44.94096
57 38.555237 0.057735026 0.057735026
58 38.555237 0.05773501 13.204206
59 38.555237 0.057735026 22.557735
60 38.555237 17.183912 11.124246
61 38.555237 20.33952 0.057735026
62 38.555237 22.823635 22.557735
63 38.555237 36.32159 12.391235
64 38.555237 44.927536 0.057735026
65 38.565395 44.94226 8.972042
66 38.555237 44.942265 22.557735
67 46.496918 44.939316 44.939316
68 47.861046 0.07301686 44.93904
69 50.3303 44.939625 0.06037172
70 50.69543 44.939507 23.051199
71 61.45839 0.06286355 0.0628635
72 61.620777 0.06325478 36.99928
73 62.489265 25.940905 44.936115
74 63.077293 17.78507 0.06322605
75 66.90208 0.064774014 44.935223
76 69.60972 36.6897 0.06468869
77 83.41979 44.93222 0.06778117
78 86.72312 0.068357706 19.964514
79 97.0703 0.07007416 44.929928
80 98.739006 44.9302 44.9302
81 107.78541 0.066127315 0.06612728
82 116.60045 0.0625459 26.353771
83 117.47162 12.768406 0.062192407
84 118.752304 44.938328 0.06167232
85 128.44476 0.057735026 0.057735026
86 128.44476 0.057735026 23.264175
87 128.44476 0.057735026 44.942265
88 128.44476 8.689357 44.942265
89 128.44476 19.371113 0.057734966
90 128.44476 26.830984 19.987122
91 128.44476 30.596498 44.942265
92 128.44476 44.942265 0.057735026
93 128.44476 44.942265 17.65273
94 128.44476 44.942265 44.942265
95 108.3576 36.85812 23.29128
96 81.76637 9.3854885 9.111294
97 105.744064 0.064949505 19.522589
98 120.02046 9.608938 22.292301
99 120.65614 21.319487 10.990032
100 105.319984 7.276328 15.618428
101 40.19312 4.646109 28.460949
102 40.30955 5.7742825 40.298428
103 40.196384 15.844165 29.389132
104 40.612328 29.405344 30.497206
105 40.178467 38.75889 29.004211
106 70.00315 37.12352 44.93461
107 13.248909 22.372227 30.058283
108 53.443485 16.650839 5.4913855
109 52.863464 16.16986 15.490943
110 52.48382 15.741613 27.632793
111 52.671715 28.673992 16.882708
112 52.800102 28.100225 28.93774
113 106.55203 14.127206 0.06655928
114 52.90862 40.136612 4.7121954
115 65.42446 5.3950825 16.271927
116 10.897614 22.577765 38.0907
117 63.92364 16.610981 15.997016
118 65.7074 16.229355 28.715988
119 65.83084 16.502876 38.61046
120 64.18251 28.42748 15.982353
121 65.46023 28.781008 28.667164
122 59.291252 36.748016 11.220444
123 118.86279 36.89343 22.317724
124 59.112843 8.507791 21.933395
125 82.02226 22.511288 9.379935
126 108.57723 37.11997 33.01161
127 47.201603 21.444525 37.010727
128 105.24385 22.199043 35.357494
129 76.43381 6.0214086 17.111343
130 76.87725 6.19385 27.574121
131 82.10119 23.08831 36.094303
132 78.23502 15.924531 16.635098
133 77.15695 16.233908 28.34027
134 95.07987 35.25494 8.355046
135 75.79638 28.64981 4.93188
136 76.29471 28.281332 15.911917
137 76.998604 29.155329 28.904095
138 47.276455 10.20132 8.338734
139 69.21442 23.499763 7.7934895
140 88.04431 6.0994816 16.298666
141 88.203415 4.519987 39.68128
142 90.01998 17.15659 6.1573367
143 88.819115 16.041693 16.074238
144 88.31799 16.765938 29.407072
145 89.493416 28.679407 16.654903
146 89.29096 28.083508 28.77238
147 88.34349 39.153107 6.0668344
148 88.51477 38.26981 16.566784
149 88.970894 39.174316 29.563084
150 101.526085 15.3004 6.4810753
151 100.63224 17.180962 16.738836
152 100.97798 17.57529 28.743753
153 101.31702 16.525173 38.72969
154 100.90349 29.09362 15.541528
155 100.9796 29.333313 28.303858
156 100.155014 38.483017 28.720188
157 8.7761345 15.806464 31.001854
158 110.05371 16.908642 5.7341676
159 112.56696 16.4748 16.18072
160 112.63712 16.980196 28.50438
161 112.35112 29.07196 6.321149
162 112.828606 28.082985 16.226843
163 113.34085 28.234251 28.685778
164 74.11416 10.752588 36.60147
165 77.13941 37.327522 36.846256
166 105.08439 27.410719 7.223475
167 74.78558 28.791746 36.57712
168 31.787312 15.790956 22.57986
169 73.535645 44.934425 25.675703
170 121.11365 29.212328 11.304231
171 121.03114 32.77671 37.43427
172 45.905315 12.473132 21.605621
173 118.73312 8.303914 14.455758
174 120.95241 22.869345 27.246412
175 128.44476 22.379719 37.98356
176 80.234116 33.507942 0.0670517
177 40.319065 16.251719 44.94098
178 57.35736 44.938053 9.48492
179 39.178455 44.941174 36.97415
180 52.764755 16.231028 44.938065
181 107.056755 22.18046 11.975005
182 52.909054 29.096273 44.938034
183 106.57704 23.384588 22.546022
184 90.80175 40.322144 44.93065
185 38.555237 27.40864 14.277802
186 46.08484 34.67844 23.7794
187 38.555237 5.217613 6.3434763
188 46.244843 34.045563 36.75579
189 70.86074 10.511982 9.181094
190 70.4469 11.176076 22.241127
191 100.897095 0.06867907 28.749374
192 109.43536 0.06533602 28.749374
193 109.50939 0.06541103 36.596664
194 68.190445 9.31761 44.934975
195 76.66588 19.941769 44.93646
196 80.91118 29.398891 44.932453
197 59.19148 22.783007 22.41462
198 70.89586 21.950783 22.031197
199 44.433792 44.940594 29.855583
200 52.46734 44.93894 30.557524
201 83.01075 11.22678 22.51531
202 84.51256 9.18409 33.999687
203 81.00143 37.576412 10.56003
204 82.83326 34.164253 22.879488
205 128.44476 7.1758995 7.176364
206 95.02368 9.729512 9.736425
207 93.64547 10.459575 23.29341
208 96.1149 10.315781 33.78953
209 95.55719 34.74159 22.479145
210 128.44476 18.752142 7.8962984
211 128.44476 16.766254 15.921507
212 93.660034 34.565952 36.047268
213 83.02442 22.527157 22.562916
214 94.87736 22.759087 22.491617
215 95.82807 22.119411 33.690586
216 93.45923 22.018028 10.722558
217 72.0843 0.06525826 26.910625
218 60.179173 8.637733 11.228221
219 24.463995 23.075361 36.85683
220 116.61651 24.555727 0.06253937
221 57.566185 19.23572 35.451797
222 60.86196 0.06273046 13.890635
223 76.66588 0.06348368 0.063740626
224 66.453384 37.94938 7.830535
225 51.45552 6.961809 22.47102
226 51.82922 8.971586 35.272446
227 84.839905 13.875721 0.06800641
228 75.790306 15.959538 0.06607031
229 111.78746 8.188385 22.12388
230 96.20804 0.07016362 0.070163615
231 113.02515 24.119825 36.65413
232 62.607327 16.023432 44.936092
233 55.77961 12.1538725 0.061591946
234 119.18982 37.74312 30.061789
235 58.492474 36.842224 44.936485
236 97.32008 25.058798 0.06592958
237 82.72369 44.936287 24.3455
238 93.46227 28.704903 6.2065163
239 121.123795 29.271032 20.030361
240 118.843605 0.06163523 0.061635207
241 121.094536 36.302414 5.682685
242 128.44476 37.051517 24.481983
243 97.20849 35.322887 44.930923
244 88.75848 0.068685755 27.268076
245 72.695595 33.972267 9.815034
246 72.86994 0.06585302 37.416862
247 121.154106 17.39575 22.647034
248 119.32822 7.32746 6.447949
249 100.897095 44.931072 32.43571
250 113.012695 44.935997 7.446779
251 113.012695 44.935997 16.252447
252 57.811413 27.878422 36.523434
253 116.47641 44.9374 29.119204
254 45.575966 21.512857 18.4576
255 128.44476 9.714423 0.057734996
256 -8.1433525 13.044554 38.039043
257 128.44476 34.037914 13.581743
258 40.326805 0.05869855 30.277931
259 -7.980897 24.044226 30.05759
260 113.19274 0.06392695 17.896027
261 93.83716 9.10082 44.934322
262 37.327755 34.26804 37.81005
263 58.669678 10.216077 39.502277
264 102.51088 0.06800467 8.280844
265 -10.710409 31.69815 22.558765
266 -19.7461 30.792513 32.691628
267 87.270325 0.06846908 12.419316
268 22.422272 29.192265 44.942265
269 -28.87319 22.562342 28.818003
270 44.70157 29.71102 9.5649185
271 6.64472 29.196394 32.581505
272 120.72873 36.080334 44.93913
273 103.03124 7.334847 44.932163
274 100.26877 19.62279 44.931545
275 88.78149 28.748281 44.935276
276 -26.561258 30.109434 44.943047
277 1.1145514 22.669874 38.01356
278 104.29936 29.461077 44.932693
279 91.491714 0.069153346 35.151817
280 116.59222 19.94379 44.93848
281 113.33336 29.200172 44.936127
282 62.28247 9.088089 0.06304805
283 -19.421003 23.125963 37.381207
284 81.516525 0.067370474 33.582184
285 55.523598 44.93774 44.93774
286 72.29894 27.860853 44.934147
287 81.264755 0.06727451 7.1142354
288 90.60403 18.131565 44.93872
289 128.44476 13.127065 36.477287
290 7.1473136 22.5 44.942265
291 64.55028 44.936703 32.44134
292 79.048584 44.93316 33.85427
293 43.940544 8.156307 44.94004
294 64.55028 44.936165 44.936165
295 43.046658 0.059536822 36.791954
296 76.66588 44.93405 44.93405
297 87.321526 29.13352 0.06847849
298 128.44476 6.83944 28.43174
299 128.44476 16.251719 28.749374
300 48.487312 12.184434 0.05995904
301 65.20511 28.230093 0.063702516
302 97.28891 38.731304 0.06927078
303 93.12247 14.973156 0.06517845
304 51.77787 34.726994 9.9224415
305 114.99014 44.9368 44.9368
306 128.44476 30.052706 0.057734966
307 51.34637 23.013954 22.606781
308 112.33296 0.06427995 44.93572
309 115.189186 22.72119 22.7854
310 76.57509 44.93376 15.507021
311 128.44476 7.4511333 18.894999
312 37.65922 22.038275 32.775703
313 88.78149 44.9367 19.944412
314 128.44476 44.942265 7.8878927
315 118.08245 44.938057 21.839012
316 107.54086 14.815878 22.331959
317 108.12306 44.93406 24.650686
318 48.343697 36.958843 0.05992688
319 73.4468 44.934452 0.0662324
320 38.555237 30.511995 22.557735
321 51.834953 0.060841493 27.942635
322 -2.0578704 32.564564 22.55813
323 69.66169 30.779715 22.03133
324 60.97019 37.552185 0.0627542
325 64.55028 44.936443 0.06355588
326 57.552124 0.06289883 44.9371
327 52.246708 44.939198 15.342835
328 57.863422 29.589064 10.235484
329 64.62018 44.936424 16.052292
330 100.897095 44.950542 16.252447
331 73.08859 0.065347664 12.562565
332 52.434673 28.748281 0.060842954
333 81.82571 15.559112 36.526257
334 52.434673 0.060915075 16.252447
335 61.198326 0.0628294 24.518433
336 119.40904 16.556688 34.383175
337 67.02961 0.06416904 18.80981
338 46.209553 21.94228 44.93936
339 110.25965 9.582804 7.0581255
340 106.43098 9.10033 29.21841
341 109.52039 44.93919 0.063268445
342 45.585434 10.133199 28.315903
343 45.52206 35.122295 16.332418
344 85.20308 0.06423313 0.06449011
345 94.52291 0.0691887 13.099942
346 38.555237 30.071207 0.057735026
347 38.555237 37.54717 0.057735026
348 45.633038 20.662817 27.679401
349 71.24445 19.010157 14.545283
350 93.33306 44.93 0.070000984
351 122.518745 44.939857 35.12093
352 72.17054 44.934513 38.419197
353 94.58963 44.93084 25.806911
354 128.44476 16.251719 44.942265
355 49.465794 36.8438 44.93806
356 39.8709 26.548216 44.940567
357 121.03659 0.060744382 33.75674
358 96.6493 0.06901238 21.10796
359 46.45974 0.059505016 9.933722
360 66.08335 0.06389916 7.8181033
361 77.87526 38.747417 29.301046
362 76.66588 0.06648938 44.93351
363 85.206726 0.06798989 44.93201
364 65.92397 25.699722 36.692837
365 111.03684 0.06480634 8.159028
366 98.983696 0.06937662 36.83965
367 6.600257 29.19659 22.563854
368 73.472885 20.15085 36.253944
369 51.256004 20.640375 0.060579006
370 78.45751 36.841167 44.938194
371 78.450584 11.848462 44.93226
372 29.641317 22.249973 32.09171
373 106.45495 38.342094 0.06662119
374 128.44476 31.883171 29.808868
375 114.89951 34.4037 0.06323616
376 38.555237 11.2282715 22.549604
377 64.571014 16.122349 8.097466
378 67.4105 31.686146 40.591743
379 31.798244 6.8755126 29.354542
380 128.44476 29.425571 37.074635
381 79.529396 0.06689996 24.22081
382 73.36525 30.593697 0.06552876
383 128.44476 0.057735026 37.21193
384 52.21316 7.766501 15.04685
385 128.44476 44.942265 28.749374
386 52.434673 0.06084294 0.061099812
387 66.72421 36.64985 16.205214
388 111.74618 37.501785 16.109417
389 87.852905 28.783384 36.919006
390 85.3382 31.024475 8.772094
391 64.14004 44.93652 23.831392
392 122.518486 25.429806 44.940372
393 45.730743 44.94066 10.18724
394 9.497905 15.807735 44.942265
395 39.683628 0.059315115 44.940685
396 108.738235 19.943686 44.938377
397 31.805235 44.942265 36.921074
398 34.432518 22.25535 39.80293
399 -7.2121115 22.913168 22.55801
400 94.9874 44.93055 37.45535
401 -15.920642 13.824064 22.558168
402 80.647804 0.067137904 16.351732
403 95.22079 7.518915 0.0649852
404 -9.156556 31.853891 44.94106
405 22.648788 15.801227 30.483252
406 45.494953 0.05932505 19.405092
407 69.06213 0.063173614 0.06330206
408 5.4895372 29.192265 44.942265
409 58.301094 23.185003 0.06215655
410 79.519295 7.7099676 0.06690019
411 -8.649444 20.403503 44.941536
412 -28.301931 29.934969 22.556755
413 -29.694479 15.204604 26.877274
414 39.263905 44.94077 44.94077
415 83.98296 44.932774 44.932796
416 31.793829 29.20367 29.85986
417 104.30913 0.06723987 44.932762
418 119.40664 0.06140644 11.53954
419 105.87585 44.933098 44.932182
420 57.44029 44.938034 0.0619638
421 66.372 0.064047776 31.447153
422 112.95914 5.7870646 0.06402544
423 -26.968843 14.931416 44.943096
424 94.29705 44.930836 13.588833
425 128.44476 34.996563 5.465942
426 69.422485 8.072929 31.814026
427 59.368008 40.3879 17.285606
428 106.71611 28.687803 0.066482104
429 101.196434 11.6306305 23.697235
430 122.62992 4.7904587 39.37294
$EndNodes
$Elements
1600
0 4 2 0 1 61 60 270 185
1 4 2 0 1 244 191 208 279
2 4 2 0 1 9 11 401 283
3 4 2 0 1 204 146 209 149
4 4 2 0 1 236 302 238 166
5 4 2 0 1 166 302 428 236
6 4 2 0 1 37 405 372 219
7 4 2 0 1 51 356 262 56
8 4 2 0 1 156 209 155 212
9 4 2 0 1 158 173 99 159
10 4 2 0 1 157 16 277 15
11 4 2 0 1 160 159 229 316
12 4 2 0 1 283 11 12 423
13 4 2 0 1 35 50 36 398
14 4 2 0 1 229 192 260 82
15 4 2 0 1 405 398 50 312
16 4 2 0 1 402 96 140 267
17 4 2 0 1 158 220 99 210
18 4 2 0 1 176 319 76 245
19 4 2 0 1 273 308 193 31
20 4 2 0 1 310 387 136 38
21 4 2 0 1 310 38 329 387
22 4 2 0 1 54 391 38 427
23 4 2 0 1 336 175 289 299
24 4 2 0 1 44 175 392 280
25 4 2 0 1 38 427 391 329
26 4 2 0 1 140 358 206 207
27 4 2 0 1 152 214 151 207
28 4 2 0 1 55 106 165 294
29 4 2 0 1 139 245 120 136
30 4 2 0 1 20 404 27 26
31 4 2 0 1 330 353 209 156
32 4 2 0 1 330 156 209 95
33 4 2 0 1 228 96 125 132
34 4 2 0 1 204 148 145 390
35 4 2 0 1 100 191 97 192
36 4 2 0 1 54 112 200 186
37 4 2 0 1 139 135 245 136
38 4 2 0 1 156 209 149 353
39 4 2 0 1 283 411 11 259
40 4 2 0 1 56 67 179 414
41 4 2 0 1 200 291 55 54
42 4 2 0 1 167 165 286 196
43 4 2 0 1 6 1 5 7
44 4 2 0 1 127 221 252 182
45 4 2 0 1 33 290 408 116
46 4 2 0 1 219 405 36 107
47 4 2 0 1 35 36 116 219
48 4 2 0 1 122 111 327 304
49 4 2 0 1 95 253 234 123
50 4 2 0 1 327 343 304 111
51 4 2 0 1 95 123 315 253
52 4 2 0 1 257 241 123 93
53 4 2 0 1 110 124 197 118
54 4 2 0 1 118 190 426 124
55 4 2 0 1 180 221 263 127
56 4 2 0 1 180 177 127 226
57 4 2 0 1 215 278 128 155
58 4 2 0 1 368 195 131 196
59 4 2 0 1 368 196 131 167
60 4 2 0 1 396 280 231 281
61 4 2 0 1 138 406 359 384
62 4 2 0 1 225 321 124 226
63 4 2 0 1 336 298 299 289
64 4 2 0 1 152 151 429 207
65 4 2 0 1 93 314 257 241
66 4 2 0 1 208 429 191 207
67 4 2 0 1 156 212 149 209
68 4 2 0 1 29 32 367 157
69 4 2 0 1 330 134 3 154
70 4 2 0 1 134 3 154 166
71 4 2 0 1 310 38 136 204
72 4 2 0 1 253 126 317 95
73 4 2 0 1 237 149 361 204
74 4 2 0 1 310 169 329 38
75 4 2 0 1 387 54 38 427
76 4 2 0 1 297 147 176 390
77 4 2 0 1 329 122 387 427
78 4 2 0 1 121 378 165 55
79 4 2 0 1 54 55 121 291
80 4 2 0 1 202 288 333 371
81 4 2 0 1 202 164 371 333
82 4 2 0 1 273 308 31 396
83 4 2 0 1 273 153 274 396
84 4 2 0 1 240 248 83 422
85 4 2 0 1 428 375 373 3
86 4 2 0 1 387 224 122 329
87 4 2 0 1 121 165 378 167
88 4 2 0 1 361 146 149 212
89 4 2 0 1 40 104 62 320
90 4 2 0 1 361 292 352 165
91 4 2 0 1 176 203 147 77
92 4 2 0 1 228 125 96 227
93 4 2 0 1 76 224 319 325
94 4 2 0 1 361 352 292 169
95 4 2 0 1 310 361 169 38
96 4 2 0 1 99 170 162 239
97 4 2 0 1 90 170 257 306
98 4 2 0 1 374 380 94 171
99 4 2 0 1 406 334 384 225
100 4 2 0 1 406 321 334 225
101 4 2 0 1 311 211 205 173
102 4 2 0 1 210 99 173 211
103 4 2 0 1 336 174 299 247
104 4 2 0 1 170 241 257 306
105 4 2 0 1 280 392 354 175
106 4 2 0 1 78 345 140 358
107 4 2 0 1 3 251 241 250
108 4 2 0 1 113 150 403 339
109 4 2 0 1 28 135 176 382
110 4 2 0 1 277 30 16 157
111 4 2 0 1 114 178 122 420
112 4 2 0 1 385 253 234 351
113 4 2 0 1 38 391 169 329
114 4 2 0 1 136 387 245 120
115 4 2 0 1 387 122 54 427
116 4 2 0 1 369 270 347 346
117 4 2 0 1 320 343 185 63
118 4 2 0 1 347 270 63 346
119 4 2 0 1 206 100 150 151
120 4 2 0 1 225 334 124 321
121 4 2 0 1 329 178 325 122
122 4 2 0 1 329 224 122 325
123 4 2 0 1 329 310 224 325
124 4 2 0 1 427 54 391 327
125 4 2 0 1 160 159 316 183
126 4 2 0 1 123 253 234 385
127 4 2 0 1 123 385 315 253
128 4 2 0 1 310 203 148 204
129 4 2 0 1 237 149 292 361
130 4 2 0 1 317 253 95 315
131 4 2 0 1 425 241 257 314
132 4 2 0 1 358 206 345 140
133 4 2 0 1 215 243 155 212
134 4 2 0 1 100 206 358 207
135 4 2 0 1 124 421 72 335
136 4 2 0 1 139 136 120 349
137 4 2 0 1 216 236 238 166
138 4 2 0 1 216 150 151 206
139 4 2 0 1 228 189 349 377
140 4 2 0 1 86 418 205 240
141 4 2 0 1 218 377 109 117
142 4 2 0 1 225 334 384 124
143 4 2 0 1 264 100 150 206
144 4 2 0 1 344 223 287 410
145 4 2 0 1 410 189 287 96
146 4 2 0 1 218 189 377 117
147 4 2 0 1 208 429 207 152
148 4 2 0 1 19 411 404 259
149 4 2 0 1 358 100 345 206
150 4 2 0 1 87 88 383 430
151 4 2 0 1 231 336 44 280
152 4 2 0 1 174 239 374 90
153 4 2 0 1 358 100 97 345
154 4 2 0 1 124 72 321 335
155 4 2 0 1 336 247 299 98
156 4 2 0 1 336 298 98 299
157 4 2 0 1 208 288 153 215
158 4 2 0 1 124 218 222 384
159 4 2 0 1 124 115 222 218
160 4 2 0 1 180 221 127 182
161 4 2 0 1 261 288 153 208
162 4 2 0 1 180 338 182 127
163 4 2 0 1 326 72 263 75
164 4 2 0 1 295 101 342 321
165 4 2 0 1 295 321 226 72
166 4 2 0 1 54 343 111 186
167 4 2 0 1 320 104 186 105
168 4 2 0 1 23 259 256 24
169 4 2 0 1 256 25 16 17
170 4 2 0 1 112 188 200 186
171 4 2 0 1 49 48 43 102
172 4 2 0 1 105 262 104 188
173 4 2 0 1 182 188 252 127
174 4 2 0 1 23 15 259 24
175 4 2 0 1 411 256 16 17
176 4 2 0 1 13 283 7 266
177 4 2 0 1 256 411 25 17
178 4 2 0 1 185 270 346 63
179 4 2 0 1 138 108 282 233
180 4 2 0 1 348 307 112 110
181 4 2 0 1 13 14 276 283
182 4 2 0 1 0 269 8 9
183 4 2 0 1 60 172 376 58
184 4 2 0 1 266 9 269 412
185 4 2 0 1 19 18 277 259
186 4 2 0 1 254 111 108 332
187 4 2 0 1 312 103 50 168
188 4 2 0 1 384 334 359 386
189 4 2 0 1 384 406 359 334
190 4 2 0 1 117 328 377 109
191 4 2 0 1 110 112 197 307
192 4 2 0 1 349 120 198 136
193 4 2 0 1 386 138 282 233
194 4 2 0 1 266 9 412 10
195 4 2 0 1 265 10 401 266
196 4 2 0 1 277 17 16 30
197 4 2 0 1 19 18 265 322
198 4 2 0 1 372 312 405 168
199 4 2 0 1 416 312 104 42
200 4 2 0 1 320 185 343 62
201 4 2 0 1 21 17 277 30
202 4 2 0 1 14 404 283 13
203 4 2 0 1 21 17 25 411
204 4 2 0 1 53 179 56 397
205 4 2 0 1 53 397 56 51
206 4 2 0 1 268 416 42 219
207 4 2 0 1 283 411 12 11
208 4 2 0 1 283 259 404 411
209 4 2 0 1 130 164 284 202
210 4 2 0 1 310 245 203 136
211 4 2 0 1 237 204 361 310
212 4 2 0 1 149 292 361 212
213 4 2 0 1 149 204 146 361
214 4 2 0 1 140 345 267 206
215 4 2 0 1 264 403 345 206
216 4 2 0 1 208 191 244 207
217 4 2 0 1 212 243 275 215
218 4 2 0 1 51 356 398 42
219 4 2 0 1 170 162 241 161
220 4 2 0 1 306 257 425 241
221 4 2 0 1 51 42 219 268
222 4 2 0 1 288 275 243 215
223 4 2 0 1 142 236 216 150
224 4 2 0 1 282 108 377 74
225 4 2 0 1 138 108 109 218
226 4 2 0 1 166 220 236 428
227 4 2 0 1 228 282 377 74
228 4 2 0 1 386 282 360 71
229 4 2 0 1 386 300 138 233
230 4 2 0 1 138 108 218 282
231 4 2 0 1 386 360 282 218
232 4 2 0 1 232 73 119 221
233 4 2 0 1 337 115 222 124
234 4 2 0 1 331 222 115 360
235 4 2 0 1 228 189 96 132
236 4 2 0 1 309 239 163 174
237 4 2 0 1 247 174 299 90
238 4 2 0 1 329 327 427 391
239 4 2 0 1 387 427 38 329
240 4 2 0 1 54 55 200 112
241 4 2 0 1 254 60 138 172
242 4 2 0 1 195 194 232 119
243 4 2 0 1 310 148 313 237
244 4 2 0 1 313 353 292 149
245 4 2 0 1 418 205 248 173
246 4 2 0 1 173 158 210 248
247 4 2 0 1 172 225 109 110
248 4 2 0 1 342 225 226 321
249 4 2 0 1 110 225 109 124
250 4 2 0 1 376 59 58 172
251 4 2 0 1 376 59 172 101
252 4 2 0 1 125 136 135 139
253 4 2 0 1 160 316 229 340
254 4 2 0 1 160 340 229 41
255 4 2 0 1 376 60 62 172
256 4 2 0 1 110 221 112 127
257 4 2 0 1 390 147 203 148
258 4 2 0 1 390 204 148 203
259 4 2 0 1 402 287 129 96
260 4 2 0 1 402 96 129 140
261 4 2 0 1 353 249 400 149
262 4 2 0 1 353 156 249 149
263 4 2 0 1 239 123 257 170
264 4 2 0 1 371 141 362 202
265 4 2 0 1 226 321 124 72
266 4 2 0 1 232 119 263 221
267 4 2 0 1 180 226 127 263
268 4 2 0 1 95 253 126 234
269 4 2 0 1 122 111 54 327
270 4 2 0 1 124 117 218 109
271 4 2 0 1 118 426 263 124
272 4 2 0 1 110 124 118 263
273 4 2 0 1 122 114 328 304
274 4 2 0 1 122 224 328 324
275 4 2 0 1 330 388 154 3
276 4 2 0 1 126 155 128 278
277 4 2 0 1 128 278 231 126
278 4 2 0 1 308 87 430 88
279 4 2 0 1 131 196 389 167
280 4 2 0 1 165 389 196 167
281 4 2 0 1 13 276 7 283
282 4 2 0 1 86 418 311 205
283 4 2 0 1 220 89 306 210
284 4 2 0 1 35 51 219 268
285 4 2 0 1 33 35 290 116
286 4 2 0 1 170 90 210 306
287 4 2 0 1 210 90 99 211
288 4 2 0 1 210 99 90 170
289 4 2 0 1 360 218 222 115
290 4 2 0 1 301 28 139 74
291 4 2 0 1 223 189 410 282
292 4 2 0 1 410 223 287 189
293 4 2 0 1 221 73 252 182
294 4 2 0 1 221 252 364 121
295 4 2 0 1 74 139 409 377
296 4 2 0 1 377 328 117 139
297 4 2 0 1 310 387 245 136
298 4 2 0 1 387 310 224 329
299 4 2 0 1 92 241 314 84
300 4 2 0 1 29 367 22 15
301 4 2 0 1 45 179 262 105
302 4 2 0 1 105 179 262 188
303 4 2 0 1 326 226 263 72
304 4 2 0 1 345 230 403 264
305 4 2 0 1 239 247 99 90
306 4 2 0 1 240 205 255 248
307 4 2 0 1 255 205 240 85
308 4 2 0 1 264 230 403 81
309 4 2 0 1 245 76 301 224
310 4 2 0 1 295 102 395 68
311 4 2 0 1 138 109 384 218
312 4 2 0 1 412 269 0 9
313 4 2 0 1 416 40 372 37
314 4 2 0 1 306 241 92 84
315 4 2 0 1 193 273 417 308
316 4 2 0 1 284 164 130 246
317 4 2 0 1 270 369 254 60
318 4 2 0 1 259 16 411 256
319 4 2 0 1 270 332 111 254
320 4 2 0 1 318 393 304 114
321 4 2 0 1 426 130 246 217
322 4 2 0 1 318 114 304 332
323 4 2 0 1 217 130 190 426
324 4 2 0 1 335 421 217 190
325 4 2 0 1 337 331 129 402
326 4 2 0 1 246 284 217 130
327 4 2 0 1 42 416 372 219
328 4 2 0 1 40 405 32 168
329 4 2 0 1 217 246 426 421
330 4 2 0 1 119 73 195 368
331 4 2 0 1 221 364 73 119
332 4 2 0 1 274 273 261 153
333 4 2 0 1 141 279 208 261
334 4 2 0 1 422 264 403 81
335 4 2 0 1 249 156 353 317
336 4 2 0 1 23 256 259 401
337 4 2 0 1 408 277 19 271
338 4 2 0 1 47 101 258 59
339 4 2 0 1 19 18 259 265
340 4 2 0 1 242 123 257 239
341 4 2 0 1 398 405 219 372
342 4 2 0 1 399 265 259 18
343 4 2 0 1 0 413 8 269
344 4 2 0 1 141 202 208 279
345 4 2 0 1 279 79 261 363
346 4 2 0 1 282 223 360 407
347 4 2 0 1 248 83 422 158
348 4 2 0 1 83 113 422 158
349 4 2 0 1 283 12 276 423
350 4 2 0 1 244 284 130 381
351 4 2 0 1 244 279 202 284
352 4 2 0 1 39 147 203 77
353 4 2 0 1 52 105 179 45
354 4 2 0 1 237 149 313 292
355 4 2 0 1 245 319 224 310
356 4 2 0 1 285 200 355 67
357 4 2 0 1 378 106 73 286
358 4 2 0 1 259 401 283 266
359 4 2 0 1 269 5 1 7
360 4 2 0 1 331 287 129 402
361 4 2 0 1 242 123 93 257
362 4 2 0 1 297 350 176 147
363 4 2 0 1 247 174 90 239
364 4 2 0 1 341 424 350 302
365 4 2 0 1 424 148 39 147
366 4 2 0 1 39 203 147 148
367 4 2 0 1 365 339 264 100
368 4 2 0 1 339 422 264 403
369 4 2 0 1 339 100 150 264
370 4 2 0 1 98 82 86 298
371 4 2 0 1 330 373 250 3
372 4 2 0 1 360 223 282 189
373 4 2 0 1 180 177 338 127
374 4 2 0 1 31 41 336 396
375 4 2 0 1 243 184 400 212
376 4 2 0 1 227 410 403 96
377 4 2 0 1 227 410 96 228
378 4 2 0 1 274 261 288 153
379 4 2 0 1 293 395 102 68
380 4 2 0 1 179 67 355 200
381 4 2 0 1 355 179 188 56
382 4 2 0 1 200 188 179 105
383 4 2 0 1 18 277 259 15
384 4 2 0 1 342 102 103 101
385 4 2 0 1 327 343 111 54
386 4 2 0 1 112 55 200 188
387 4 2 0 1 246 72 263 426
388 4 2 0 1 130 129 190 201
389 4 2 0 1 204 209 145 148
390 4 2 0 1 361 146 212 165
391 4 2 0 1 208 340 429 152
392 4 2 0 1 126 243 212 155
393 4 2 0 1 126 155 212 156
394 4 2 0 1 87 430 383 357
395 4 2 0 1 328 332 304 114
396 4 2 0 1 122 111 304 328
397 4 2 0 1 304 270 332 111
398 4 2 0 1 245 319 203 176
399 4 2 0 1 245 135 390 136
400 4 2 0 1 140 267 96 206
401 4 2 0 1 403 264 150 206
402 4 2 0 1 264 206 345 100
403 4 2 0 1 172 109 307 110
404 4 2 0 1 110 307 197 109
405 4 2 0 1 152 214 183 151
406 4 2 0 1 160 309 247 159
407 4 2 0 1 160 159 183 309
408 4 2 0 1 138 254 109 108
409 4 2 0 1 108 111 109 328
410 4 2 0 1 138 369 254 108
411 4 2 0 1 150 236 216 166
412 4 2 0 1 216 150 181 151
413 4 2 0 1 216 166 181 150
414 4 2 0 1 301 135 382 76
415 4 2 0 1 107 405 36 157
416 4 2 0 1 367 37 34 107
417 4 2 0 1 206 207 100 151
418 4 2 0 1 160 340 41 31
419 4 2 0 1 31 193 41 308
420 4 2 0 1 398 177 50 312
421 4 2 0 1 42 312 372 416
422 4 2 0 1 404 283 266 259
423 4 2 0 1 404 266 283 13
424 4 2 0 1 375 250 241 84
425 4 2 0 1 341 250 375 84
426 4 2 0 1 304 343 270 111
427 4 2 0 1 304 318 270 393
428 4 2 0 1 207 191 358 100
429 4 2 0 1 100 191 358 97
430 4 2 0 1 61 60 187 138
431 4 2 0 1 276 7 2 6
432 4 2 0 1 300 187 138 61
433 4 2 0 1 259 401 11 283
434 4 2 0 1 340 191 192 193
435 4 2 0 1 152 151 316 429
436 4 2 0 1 152 151 183 316
437 4 2 0 1 159 150 151 181
438 4 2 0 1 303 150 236 142
439 4 2 0 1 301 382 135 28
440 4 2 0 1 236 303 142 227
441 4 2 0 1 428 166 220 161
442 4 2 0 1 295 406 101 321
443 4 2 0 1 104 320 186 62
444 4 2 0 1 110 124 109 197
445 4 2 0 1 197 117 124 109
446 4 2 0 1 198 120 323 136
447 4 2 0 1 218 108 109 377
448 4 2 0 1 377 328 108 109
449 4 2 0 1 409 108 377 328
450 4 2 0 1 328 111 304 332
451 4 2 0 1 331 115 189 360
452 4 2 0 1 400 149 292 353
453 4 2 0 1 130 129 201 381
454 4 2 0 1 213 143 201 132
455 4 2 0 1 202 333 133 164
456 4 2 0 1 310 361 38 204
457 4 2 0 1 310 148 237 204
458 4 2 0 1 215 275 212 389
459 4 2 0 1 330 424 209 353
460 4 2 0 1 249 212 149 156
461 4 2 0 1 280 336 44 175
462 4 2 0 1 136 203 390 245
463 4 2 0 1 297 390 176 135
464 4 2 0 1 142 206 216 143
465 4 2 0 1 418 248 205 240
466 4 2 0 1 331 115 222 337
467 4 2 0 1 331 129 115 337
468 4 2 0 1 228 28 125 227
469 4 2 0 1 227 125 96 142
470 4 2 0 1 208 191 429 340
471 4 2 0 1 340 191 100 192
472 4 2 0 1 400 415 184 80
473 4 2 0 1 25 411 256 11
474 4 2 0 1 52 45 320 105
475 4 2 0 1 66 105 52 320
476 4 2 0 1 342 225 321 101
477 4 2 0 1 343 65 63 66
478 4 2 0 1 343 70 65 66
479 4 2 0 1 105 188 104 186
480 4 2 0 1 66 105 320 186
481 4 2 0 1 75 72 263 246
482 4 2 0 1 124 421 190 426
483 4 2 0 1 387 120 136 323
484 4 2 0 1 324 76 325 224
485 4 2 0 1 324 114 69 332
486 4 2 0 1 185 270 254 60
487 4 2 0 1 233 108 369 138
488 4 2 0 1 172 110 348 342
489 4 2 0 1 117 197 111 109
490 4 2 0 1 110 112 221 197
491 4 2 0 1 110 197 221 118
492 4 2 0 1 350 147 39 77
493 4 2 0 1 420 122 114 324
494 4 2 0 1 202 164 362 371
495 4 2 0 1 141 362 363 371
496 4 2 0 1 310 203 204 136
497 4 2 0 1 142 403 96 227
498 4 2 0 1 303 227 403 142
499 4 2 0 1 250 375 373 341
500 4 2 0 1 212 146 149 209
501 4 2 0 1 69 114 393 318
502 4 2 0 1 123 162 241 170
503 4 2 0 1 335 190 217 337
504 4 2 0 1 153 274 215 288
505 4 2 0 1 415 292 165 296
506 4 2 0 1 19 277 411 259
507 4 2 0 1 248 339 158 422
508 4 2 0 1 83 248 210 158
509 4 2 0 1 365 339 248 422
510 4 2 0 1 14 12 276 283
511 4 2 0 1 245 310 224 387
512 4 2 0 1 314 241 250 84
513 4 2 0 1 49 48 102 395
514 4 2 0 1 319 39 203 77
515 4 2 0 1 39 310 203 148
516 4 2 0 1 357 298 383 86
517 4 2 0 1 266 269 283 7
518 4 2 0 1 7 423 2 1
519 4 2 0 1 7 423 276 2
520 4 2 0 1 359 187 57 58
521 4 2 0 1 298 311 86 98
522 4 2 0 1 113 158 83 220
523 4 2 0 1 422 158 113 339
524 4 2 0 1 350 77 176 147
525 4 2 0 1 261 366 273 79
526 4 2 0 1 160 31 41 336
527 4 2 0 1 160 336 231 31
528 4 2 0 1 396 308 41 354
529 4 2 0 1 31 308 41 396
530 4 2 0 1 217 129 130 381
531 4 2 0 1 217 130 129 190
532 4 2 0 1 228 282 410 189
533 4 2 0 1 410 189 96 228
534 4 2 0 1 166 134 238 154
535 4 2 0 1 181 216 154 166
536 4 2 0 1 216 238 154 166
537 4 2 0 1 238 166 302 134
538 4 2 0 1 237 361 169 310
539 4 2 0 1 38 121 137 361
540 4 2 0 1 173 339 158 248
541 4 2 0 1 365 339 173 248
542 4 2 0 1 54 70 200 391
543 4 2 0 1 226 293 68 326
544 4 2 0 1 68 102 226 295
545 4 2 0 1 58 59 406 172
546 4 2 0 1 172 59 406 101
547 4 2 0 1 172 103 101 342
548 4 2 0 1 107 405 157 32
549 4 2 0 1 23 399 15 22
550 4 2 0 1 399 15 259 23
551 4 2 0 1 170 210 220 306
552 4 2 0 1 33 34 268 116
553 4 2 0 1 41 357 193 82
554 4 2 0 1 41 192 229 82
555 4 2 0 1 41 82 229 98
556 4 2 0 1 41 82 298 357
557 4 2 0 1 41 82 98 298
558 4 2 0 1 301 135 139 28
559 4 2 0 1 364 378 73 286
560 4 2 0 1 221 252 73 364
561 4 2 0 1 327 393 304 343
562 4 2 0 1 347 65 63 270
563 4 2 0 1 266 5 269 7
564 4 2 0 1 412 269 5 0
565 4 2 0 1 37 40 372 405
566 4 2 0 1 92 425 314 241
567 4 2 0 1 121 55 165 291
568 4 2 0 1 164 333 133 368
569 4 2 0 1 371 164 362 194
570 4 2 0 1 313 209 149 148
571 4 2 0 1 237 148 313 149
572 4 2 0 1 157 107 277 116
573 4 2 0 1 165 389 167 137
574 4 2 0 1 300 369 138 233
575 4 2 0 1 234 126 163 171
576 4 2 0 1 165 196 370 286
577 4 2 0 1 237 292 169 361
578 4 2 0 1 40 62 104 416
579 4 2 0 1 405 312 50 168
580 4 2 0 1 40 405 168 372
581 4 2 0 1 40 372 62 416
582 4 2 0 1 219 36 405 398
583 4 2 0 1 386 138 218 282
584 4 2 0 1 386 138 384 218
585 4 2 0 1 345 267 206 344
586 4 2 0 1 153 274 231 128
587 4 2 0 1 153 396 31 231
588 4 2 0 1 166 428 3 161
589 4 2 0 1 267 345 140 78
590 4 2 0 1 62 60 254 172
591 4 2 0 1 186 307 254 111
592 4 2 0 1 277 17 411 16
593 4 2 0 1 277 16 411 259
594 4 2 0 1 20 30 411 277
595 4 2 0 1 348 112 307 186
596 4 2 0 1 62 254 185 343
597 4 2 0 1 62 348 254 186
598 4 2 0 1 270 185 343 63
599 4 2 0 1 62 172 348 103
600 4 2 0 1 62 254 348 172
601 4 2 0 1 376 103 172 62
602 4 2 0 1 308 430 87 357
603 4 2 0 1 265 266 401 259
604 4 2 0 1 399 259 265 401
605 4 2 0 1 241 84 306 375
606 4 2 0 1 104 186 348 62
607 4 2 0 1 355 188 179 200
608 4 2 0 1 273 366 417 79
609 4 2 0 1 409 328 377 139
610 4 2 0 1 326 194 75 263
611 4 2 0 1 55 378 165 106
612 4 2 0 1 376 103 101 172
613 4 2 0 1 41 192 82 193
614 4 2 0 1 178 69 114 393
615 4 2 0 1 44 171 392 380
616 4 2 0 1 380 91 94 171
617 4 2 0 1 44 380 392 175
618 4 2 0 1 382 135 176 76
619 4 2 0 1 308 41 354 88
620 4 2 0 1 430 41 308 88
621 4 2 0 1 306 425 92 241
622 4 2 0 1 289 88 354 41
623 4 2 0 1 430 88 289 41
624 4 2 0 1 172 384 109 225
625 4 2 0 1 225 384 109 124
626 4 2 0 1 124 218 384 109
627 4 2 0 1 138 384 109 172
628 4 2 0 1 110 225 124 226
629 4 2 0 1 172 342 225 110
630 4 2 0 1 110 225 226 342
631 4 2 0 1 120 54 323 387
632 4 2 0 1 120 224 122 387
633 4 2 0 1 349 228 125 132
634 4 2 0 1 349 125 136 132
635 4 2 0 1 349 189 228 132
636 4 2 0 1 224 301 328 324
637 4 2 0 1 324 301 76 224
638 4 2 0 1 127 221 112 252
639 4 2 0 1 252 188 112 127
640 4 2 0 1 252 55 112 188
641 4 2 0 1 217 337 129 381
642 4 2 0 1 217 129 337 190
643 4 2 0 1 163 231 171 126
644 4 2 0 1 131 389 215 146
645 4 2 0 1 212 389 165 146
646 4 2 0 1 215 389 212 146
647 4 2 0 1 216 145 238 390
648 4 2 0 1 255 240 248 83
649 4 2 0 1 418 365 248 240
650 4 2 0 1 326 226 295 68
651 4 2 0 1 150 113 236 166
652 4 2 0 1 317 126 156 95
653 4 2 0 1 126 156 249 317
654 4 2 0 1 305 126 419 317
655 4 2 0 1 410 287 344 96
656 4 2 0 1 72 426 246 421
657 4 2 0 1 229 340 100 192
658 4 2 0 1 356 312 398 42
659 4 2 0 1 398 36 405 50
660 4 2 0 1 259 256 411 11
661 4 2 0 1 170 239 99 90
662 4 2 0 1 336 174 175 299
663 4 2 0 1 174 374 175 299
664 4 2 0 1 174 374 299 90
665 4 2 0 1 268 34 416 219
666 4 2 0 1 174 239 163 374
667 4 2 0 1 234 171 163 374
668 4 2 0 1 295 102 48 395
669 4 2 0 1 60 369 254 138
670 4 2 0 1 243 80 400 184
671 4 2 0 1 267 344 287 96
672 4 2 0 1 402 267 140 78
673 4 2 0 1 284 381 217 130
674 4 2 0 1 29 367 15 157
675 4 2 0 1 397 52 179 45
676 4 2 0 1 51 398 35 219
677 4 2 0 1 399 23 259 401
678 4 2 0 1 94 171 91 272
679 4 2 0 1 272 392 171 91
680 4 2 0 1 150 113 166 158
681 4 2 0 1 113 220 236 166
682 4 2 0 1 184 275 415 212
683 4 2 0 1 312 103 168 62
684 4 2 0 1 62 168 312 372
685 4 2 0 1 40 372 168 62
686 4 2 0 1 282 108 218 377
687 4 2 0 1 282 360 189 218
688 4 2 0 1 218 282 377 189
689 4 2 0 1 393 65 270 343
690 4 2 0 1 343 65 270 63
691 4 2 0 1 139 409 328 301
692 4 2 0 1 74 409 108 377
693 4 2 0 1 202 284 279 141
694 4 2 0 1 18 15 367 277
695 4 2 0 1 399 15 22 18
696 4 2 0 1 269 423 413 8
697 4 2 0 1 416 37 219 34
698 4 2 0 1 354 175 392 91
699 4 2 0 1 401 256 259 11
700 4 2 0 1 94 272 305 171
701 4 2 0 1 99 309 159 247
702 4 2 0 1 173 99 247 211
703 4 2 0 1 173 99 159 247
704 4 2 0 1 160 174 336 247
705 4 2 0 1 170 241 220 161
706 4 2 0 1 161 241 220 375
707 4 2 0 1 306 375 220 241
708 4 2 0 1 400 243 212 249
709 4 2 0 1 9 11 269 8
710 4 2 0 1 8 11 401 9
711 4 2 0 1 337 190 115 124
712 4 2 0 1 266 5 412 269
713 4 2 0 1 271 277 19 18
714 4 2 0 1 60 58 187 138
715 4 2 0 1 233 108 282 74
716 4 2 0 1 233 409 108 74
717 4 2 0 1 28 135 297 176
718 4 2 0 1 171 126 305 234
719 4 2 0 1 59 376 46 379
720 4 2 0 1 408 290 277 116
721 4 2 0 1 290 20 408 277
722 4 2 0 1 20 30 277 290
723 4 2 0 1 242 239 257 90
724 4 2 0 1 90 170 239 257
725 4 2 0 1 101 379 59 47
726 4 2 0 1 379 47 46 59
727 4 2 0 1 376 168 103 62
728 4 2 0 1 59 379 101 376
729 4 2 0 1 101 59 406 258
730 4 2 0 1 172 342 101 225
731 4 2 0 1 283 14 411 404
732 4 2 0 1 283 14 12 411
733 4 2 0 1 266 269 9 283
734 4 2 0 1 194 119 263 232
735 4 2 0 1 232 180 263 194
736 4 2 0 1 302 428 3 166
737 4 2 0 1 330 251 388 3
738 4 2 0 1 388 251 241 3
739 4 2 0 1 367 32 107 157
740 4 2 0 1 368 286 73 195
741 4 2 0 1 195 232 73 119
742 4 2 0 1 247 309 174 239
743 4 2 0 1 419 126 249 317
744 4 2 0 1 165 106 378 286
745 4 2 0 1 274 243 278 215
746 4 2 0 1 274 243 215 288
747 4 2 0 1 261 141 363 371
748 4 2 0 1 61 300 369 138
749 4 2 0 1 228 189 377 282
750 4 2 0 1 4 5 0 412
751 4 2 0 1 179 67 56 355
752 4 2 0 1 0 1 413 269
753 4 2 0 1 269 423 1 413
754 4 2 0 1 235 106 73 55
755 4 2 0 1 364 73 55 252
756 4 2 0 1 123 170 241 257
757 4 2 0 1 116 107 271 34
758 4 2 0 1 107 219 37 34
759 4 2 0 1 319 310 203 39
760 4 2 0 1 114 178 420 69
761 4 2 0 1 69 420 114 324
762 4 2 0 1 56 414 179 53
763 4 2 0 1 372 398 405 312
764 4 2 0 1 35 398 36 219
765 4 2 0 1 152 316 340 429
766 4 2 0 1 360 218 386 222
767 4 2 0 1 401 10 9 266
768 4 2 0 1 116 34 268 219
769 4 2 0 1 37 405 219 107
770 4 2 0 1 5 1 0 269
771 4 2 0 1 116 394 157 36
772 4 2 0 1 64 347 393 65
773 4 2 0 1 55 73 378 106
774 4 2 0 1 364 73 378 55
775 4 2 0 1 32 37 367 107
776 4 2 0 1 369 318 270 332
777 4 2 0 1 58 406 138 172
778 4 2 0 1 138 58 359 406
779 4 2 0 1 75 246 263 194
780 4 2 0 1 326 194 263 180
781 4 2 0 1 35 394 290 116
782 4 2 0 1 397 179 56 262
783 4 2 0 1 397 262 56 51
784 4 2 0 1 126 231 281 278
785 4 2 0 1 245 319 76 224
786 4 2 0 1 30 277 116 157
787 4 2 0 1 408 277 271 116
788 4 2 0 1 44 174 175 336
789 4 2 0 1 44 171 380 374
790 4 2 0 1 44 374 380 175
791 4 2 0 1 174 374 44 175
792 4 2 0 1 405 37 40 32
793 4 2 0 1 254 138 109 172
794 4 2 0 1 57 187 386 300
795 4 2 0 1 386 187 359 138
796 4 2 0 1 300 57 187 61
797 4 2 0 1 57 187 359 386
798 4 2 0 1 343 393 304 270
799 4 2 0 1 83 89 220 210
800 4 2 0 1 210 255 83 89
801 4 2 0 1 180 73 221 182
802 4 2 0 1 239 242 374 90
803 4 2 0 1 19 265 404 26
804 4 2 0 1 266 259 265 404
805 4 2 0 1 19 259 404 265
806 4 2 0 1 51 356 42 262
807 4 2 0 1 51 42 45 262
808 4 2 0 1 348 307 254 186
809 4 2 0 1 348 254 307 172
810 4 2 0 1 38 121 291 54
811 4 2 0 1 54 291 38 391
812 4 2 0 1 38 291 169 391
813 4 2 0 1 38 361 291 121
814 4 2 0 1 38 291 361 169
815 4 2 0 1 231 396 31 336
816 4 2 0 1 396 354 41 336
817 4 2 0 1 208 31 340 152
818 4 2 0 1 31 340 41 193
819 4 2 0 1 291 361 352 165
820 4 2 0 1 291 352 361 169
821 4 2 0 1 387 323 136 38
822 4 2 0 1 323 54 38 387
823 4 2 0 1 110 263 118 221
824 4 2 0 1 240 365 422 81
825 4 2 0 1 365 422 81 264
826 4 2 0 1 415 212 275 370
827 4 2 0 1 75 246 194 362
828 4 2 0 1 113 339 403 422
829 4 2 0 1 171 126 281 305
830 4 2 0 1 366 193 31 273
831 4 2 0 1 172 406 384 225
832 4 2 0 1 101 321 406 225
833 4 2 0 1 138 406 384 172
834 4 2 0 1 172 101 406 225
835 4 2 0 1 350 147 424 39
836 4 2 0 1 337 402 129 381
837 4 2 0 1 415 370 296 165
838 4 2 0 1 212 389 370 165
839 4 2 0 1 280 336 354 396
840 4 2 0 1 21 411 30 277
841 4 2 0 1 21 17 411 277
842 4 2 0 1 62 254 60 185
843 4 2 0 1 351 94 171 374
844 4 2 0 1 385 351 374 94
845 4 2 0 1 42 398 372 312
846 4 2 0 1 398 372 219 42
847 4 2 0 1 51 398 219 42
848 4 2 0 1 250 3 373 375
849 4 2 0 1 3 375 250 241
850 4 2 0 1 129 189 287 331
851 4 2 0 1 397 179 262 45
852 4 2 0 1 397 45 262 51
853 4 2 0 1 269 423 11 283
854 4 2 0 1 306 241 220 170
855 4 2 0 1 356 177 50 398
856 4 2 0 1 35 398 51 356
857 4 2 0 1 234 253 305 351
858 4 2 0 1 234 351 171 374
859 4 2 0 1 234 351 374 385
860 4 2 0 1 416 37 372 219
861 4 2 0 1 346 369 270 61
862 4 2 0 1 277 367 107 157
863 4 2 0 1 259 16 15 277
864 4 2 0 1 277 15 367 157
865 4 2 0 1 380 171 392 91
866 4 2 0 1 380 91 392 175
867 4 2 0 1 280 175 354 336
868 4 2 0 1 66 105 186 70
869 4 2 0 1 234 305 171 351
870 4 2 0 1 247 90 211 99
871 4 2 0 1 356 262 56 188
872 4 2 0 1 356 188 56 355
873 4 2 0 1 179 56 262 188
874 4 2 0 1 48 43 102 47
875 4 2 0 1 379 101 102 47
876 4 2 0 1 99 161 162 170
877 4 2 0 1 220 166 158 181
878 4 2 0 1 220 170 161 99
879 4 2 0 1 220 210 170 99
880 4 2 0 1 103 102 50 379
881 4 2 0 1 103 379 50 168
882 4 2 0 1 47 102 48 295
883 4 2 0 1 364 378 286 167
884 4 2 0 1 368 286 167 364
885 4 2 0 1 102 226 293 68
886 4 2 0 1 365 173 339 100
887 4 2 0 1 415 370 165 212
888 4 2 0 1 370 275 196 389
889 4 2 0 1 212 275 370 389
890 4 2 0 1 176 147 203 390
891 4 2 0 1 176 390 203 245
892 4 2 0 1 216 297 238 236
893 4 2 0 1 216 390 238 297
894 4 2 0 1 142 297 216 236
895 4 2 0 1 205 211 210 173
896 4 2 0 1 205 210 248 173
897 4 2 0 1 123 374 242 385
898 4 2 0 1 54 391 200 291
899 4 2 0 1 327 391 70 54
900 4 2 0 1 235 285 55 355
901 4 2 0 1 119 164 368 195
902 4 2 0 1 364 73 368 286
903 4 2 0 1 333 195 288 131
904 4 2 0 1 371 288 333 195
905 4 2 0 1 368 195 164 333
906 4 2 0 1 415 212 165 292
907 4 2 0 1 400 292 212 415
908 4 2 0 1 206 344 267 96
909 4 2 0 1 402 140 381 78
910 4 2 0 1 49 43 50 102
911 4 2 0 1 418 173 365 260
912 4 2 0 1 418 173 248 365
913 4 2 0 1 138 58 187 359
914 4 2 0 1 341 330 424 302
915 4 2 0 1 330 341 250 373
916 4 2 0 1 424 148 313 39
917 4 2 0 1 93 315 123 385
918 4 2 0 1 242 123 385 93
919 4 2 0 1 430 383 298 289
920 4 2 0 1 430 41 289 298
921 4 2 0 1 258 295 101 47
922 4 2 0 1 255 205 210 248
923 4 2 0 1 210 248 83 255
924 4 2 0 1 293 177 226 102
925 4 2 0 1 326 295 226 72
926 4 2 0 1 50 49 102 395
927 4 2 0 1 28 125 135 139
928 4 2 0 1 28 297 125 227
929 4 2 0 1 355 55 188 200
930 4 2 0 1 355 55 182 188
931 4 2 0 1 355 285 55 200
932 4 2 0 1 235 55 182 355
933 4 2 0 1 195 194 119 164
934 4 2 0 1 243 184 212 275
935 4 2 0 1 131 195 288 275
936 4 2 0 1 227 297 125 142
937 4 2 0 1 125 297 216 142
938 4 2 0 1 236 227 142 297
939 4 2 0 1 178 393 114 304
940 4 2 0 1 317 315 95 388
941 4 2 0 1 126 305 234 253
942 4 2 0 1 305 126 317 253
943 4 2 0 1 119 73 368 364
944 4 2 0 1 277 271 107 367
945 4 2 0 1 277 271 367 18
946 4 2 0 1 116 36 157 107
947 4 2 0 1 120 323 54 197
948 4 2 0 1 120 122 54 387
949 4 2 0 1 182 55 252 188
950 4 2 0 1 182 235 73 55
951 4 2 0 1 182 55 73 252
952 4 2 0 1 121 364 55 252
953 4 2 0 1 55 291 200 294
954 4 2 0 1 55 294 200 285
955 4 2 0 1 235 294 55 285
956 4 2 0 1 235 294 106 55
957 4 2 0 1 246 426 263 164
958 4 2 0 1 263 426 118 164
959 4 2 0 1 130 426 164 133
960 4 2 0 1 130 164 426 246
961 4 2 0 1 165 296 106 370
962 4 2 0 1 165 352 296 292
963 4 2 0 1 229 173 260 100
964 4 2 0 1 229 100 260 192
965 4 2 0 1 100 97 260 192
966 4 2 0 1 316 159 100 151
967 4 2 0 1 229 159 173 100
968 4 2 0 1 229 159 100 316
969 4 2 0 1 340 316 229 100
970 4 2 0 1 376 168 379 103
971 4 2 0 1 46 168 379 376
972 4 2 0 1 336 175 354 289
973 4 2 0 1 86 260 311 418
974 4 2 0 1 418 311 205 173
975 4 2 0 1 259 15 16 24
976 4 2 0 1 314 93 251 241
977 4 2 0 1 314 241 251 250
978 4 2 0 1 198 121 368 137
979 4 2 0 1 368 121 167 137
980 4 2 0 1 368 364 167 121
981 4 2 0 1 368 286 196 167
982 4 2 0 1 286 195 368 196
983 4 2 0 1 162 154 95 388
984 4 2 0 1 330 95 154 388
985 4 2 0 1 330 209 154 95
986 4 2 0 1 162 95 154 183
987 4 2 0 1 95 155 156 209
988 4 2 0 1 163 155 95 183
989 4 2 0 1 126 155 156 95
990 4 2 0 1 163 155 126 95
991 4 2 0 1 95 155 209 154
992 4 2 0 1 183 155 95 154
993 4 2 0 1 162 3 166 154
994 4 2 0 1 162 3 161 166
995 4 2 0 1 162 241 161 3
996 4 2 0 1 162 388 3 154
997 4 2 0 1 162 388 241 3
998 4 2 0 1 140 206 96 143
999 4 2 0 1 142 96 206 143
1000 4 2 0 1 140 96 132 143
1001 4 2 0 1 201 143 140 132
1002 4 2 0 1 125 143 96 142
1003 4 2 0 1 125 96 143 132
1004 4 2 0 1 331 223 189 287
1005 4 2 0 1 129 96 287 189
1006 4 2 0 1 101 102 47 295
1007 4 2 0 1 379 102 43 47
1008 4 2 0 1 41 340 229 192
1009 4 2 0 1 370 106 165 286
1010 4 2 0 1 160 41 229 98
1011 4 2 0 1 160 41 98 336
1012 4 2 0 1 160 247 336 98
1013 4 2 0 1 41 298 98 336
1014 4 2 0 1 229 159 98 173
1015 4 2 0 1 98 159 247 173
1016 4 2 0 1 160 159 98 229
1017 4 2 0 1 160 159 247 98
1018 4 2 0 1 98 86 260 311
1019 4 2 0 1 98 82 260 86
1020 4 2 0 1 98 173 311 260
1021 4 2 0 1 229 173 98 260
1022 4 2 0 1 229 82 260 98
1023 4 2 0 1 98 247 311 173
1024 4 2 0 1 247 173 211 311
1025 4 2 0 1 189 218 360 115
1026 4 2 0 1 301 328 324 332
1027 4 2 0 1 408 116 271 33
1028 4 2 0 1 138 384 359 386
1029 4 2 0 1 346 61 270 185
1030 4 2 0 1 377 139 117 349
1031 4 2 0 1 349 125 139 136
1032 4 2 0 1 228 139 377 349
1033 4 2 0 1 228 125 139 349
1034 4 2 0 1 228 125 28 139
1035 4 2 0 1 228 139 74 377
1036 4 2 0 1 228 139 28 74
1037 4 2 0 1 379 43 102 50
1038 4 2 0 1 343 186 70 66
1039 4 2 0 1 343 54 70 186
1040 4 2 0 1 86 205 85 240
1041 4 2 0 1 318 270 347 369
1042 4 2 0 1 116 107 277 271
1043 4 2 0 1 271 367 34 107
1044 4 2 0 1 233 369 108 409
1045 4 2 0 1 399 259 15 18
1046 4 2 0 1 371 164 194 195
1047 4 2 0 1 427 122 54 327
1048 4 2 0 1 329 122 327 178
1049 4 2 0 1 209 148 313 424
1050 4 2 0 1 273 366 193 417
1051 4 2 0 1 240 365 248 422
1052 4 2 0 1 430 357 308 41
1053 4 2 0 1 308 193 41 357
1054 4 2 0 1 295 258 101 406
1055 4 2 0 1 199 200 105 70
1056 4 2 0 1 70 186 200 105
1057 4 2 0 1 313 148 310 39
1058 4 2 0 1 418 260 311 173
1059 4 2 0 1 241 93 251 388
1060 4 2 0 1 93 241 123 388
1061 4 2 0 1 330 317 388 251
1062 4 2 0 1 330 251 3 250
1063 4 2 0 1 330 317 95 388
1064 4 2 0 1 356 188 182 127
1065 4 2 0 1 356 182 338 127
1066 4 2 0 1 356 355 182 188
1067 4 2 0 1 305 126 281 278
1068 4 2 0 1 274 278 231 128
1069 4 2 0 1 396 278 281 231
1070 4 2 0 1 215 243 278 155
1071 4 2 0 1 61 60 369 270
1072 4 2 0 1 270 369 332 254
1073 4 2 0 1 107 405 32 37
1074 4 2 0 1 7 283 276 423
1075 4 2 0 1 45 262 104 105
1076 4 2 0 1 45 105 104 320
1077 4 2 0 1 416 42 104 45
1078 4 2 0 1 40 104 320 45
1079 4 2 0 1 40 416 104 45
1080 4 2 0 1 45 42 104 262
1081 4 2 0 1 107 36 219 116
1082 4 2 0 1 35 36 394 116
1083 4 2 0 1 180 73 232 221
1084 4 2 0 1 312 177 50 103
1085 4 2 0 1 103 50 102 177
1086 4 2 0 1 342 177 103 102
1087 4 2 0 1 356 104 262 188
1088 4 2 0 1 262 42 104 356
1089 4 2 0 1 356 312 42 104
1090 4 2 0 1 356 188 127 104
1091 4 2 0 1 221 127 110 263
1092 4 2 0 1 186 54 307 111
1093 4 2 0 1 111 54 307 197
1094 4 2 0 1 307 112 54 186
1095 4 2 0 1 307 54 112 197
1096 4 2 0 1 54 70 186 200
1097 4 2 0 1 327 343 54 70
1098 4 2 0 1 190 124 337 335
1099 4 2 0 1 335 190 124 421
1100 4 2 0 1 72 421 124 426
1101 4 2 0 1 118 117 124 197
1102 4 2 0 1 118 190 124 117
1103 4 2 0 1 118 197 198 117
1104 4 2 0 1 118 190 117 198
1105 4 2 0 1 119 263 118 164
1106 4 2 0 1 119 364 368 118
1107 4 2 0 1 221 118 364 119
1108 4 2 0 1 119 164 118 368
1109 4 2 0 1 221 263 118 119
1110 4 2 0 1 197 323 54 121
1111 4 2 0 1 197 198 120 323
1112 4 2 0 1 198 323 197 121
1113 4 2 0 1 284 164 362 202
1114 4 2 0 1 133 198 132 190
1115 4 2 0 1 133 190 132 201
1116 4 2 0 1 133 213 132 198
1117 4 2 0 1 133 201 132 213
1118 4 2 0 1 136 137 38 323
1119 4 2 0 1 198 323 137 136
1120 4 2 0 1 136 137 204 38
1121 4 2 0 1 198 137 213 136
1122 4 2 0 1 38 137 204 361
1123 4 2 0 1 136 213 204 137
1124 4 2 0 1 244 381 140 78
1125 4 2 0 1 244 140 381 201
1126 4 2 0 1 244 140 201 207
1127 4 2 0 1 244 140 358 78
1128 4 2 0 1 244 358 140 207
1129 4 2 0 1 130 244 202 284
1130 4 2 0 1 202 244 208 279
1131 4 2 0 1 144 207 201 143
1132 4 2 0 1 144 143 201 213
1133 4 2 0 1 144 214 143 213
1134 4 2 0 1 144 143 214 207
1135 4 2 0 1 202 288 208 144
1136 4 2 0 1 202 144 333 288
1137 4 2 0 1 208 288 215 144
1138 4 2 0 1 214 213 146 145
1139 4 2 0 1 213 146 145 204
1140 4 2 0 1 204 146 145 209
1141 4 2 0 1 209 145 214 146
1142 4 2 0 1 204 149 209 148
1143 4 2 0 1 237 148 149 204
1144 4 2 0 1 353 209 149 313
1145 4 2 0 1 361 212 292 165
1146 4 2 0 1 249 400 149 212
1147 4 2 0 1 400 184 415 212
1148 4 2 0 1 149 292 212 400
1149 4 2 0 1 366 340 191 208
1150 4 2 0 1 366 193 191 340
1151 4 2 0 1 153 31 208 152
1152 4 2 0 1 208 153 152 215
1153 4 2 0 1 153 160 31 152
1154 4 2 0 1 214 154 155 183
1155 4 2 0 1 209 214 154 155
1156 4 2 0 1 330 353 156 317
1157 4 2 0 1 330 317 156 95
1158 4 2 0 1 249 126 419 243
1159 4 2 0 1 249 126 212 156
1160 4 2 0 1 162 95 183 163
1161 4 2 0 1 183 162 163 309
1162 4 2 0 1 309 239 162 163
1163 4 2 0 1 299 247 311 98
1164 4 2 0 1 299 211 311 247
1165 4 2 0 1 299 90 211 247
1166 4 2 0 1 347 65 270 393
1167 4 2 0 1 122 304 327 178
1168 4 2 0 1 327 178 304 393
1169 4 2 0 1 178 122 304 114
1170 4 2 0 1 120 224 328 122
1171 4 2 0 1 139 120 224 328
1172 4 2 0 1 139 301 328 224
1173 4 2 0 1 245 224 301 139
1174 4 2 0 1 139 224 120 245
1175 4 2 0 1 310 319 203 245
1176 4 2 0 1 100 158 150 159
1177 4 2 0 1 173 159 158 100
1178 4 2 0 1 158 210 99 173
1179 4 2 0 1 181 159 158 99
1180 4 2 0 1 302 297 147 350
1181 4 2 0 1 103 102 379 101
1182 4 2 0 1 376 379 101 103
1183 4 2 0 1 50 102 177 293
1184 4 2 0 1 343 66 63 320
1185 4 2 0 1 343 186 66 320
1186 4 2 0 1 226 127 342 177
1187 4 2 0 1 293 177 180 226
1188 4 2 0 1 326 226 180 263
1189 4 2 0 1 218 115 189 117
1190 4 2 0 1 124 115 218 117
1191 4 2 0 1 190 115 124 117
1192 4 2 0 1 189 117 115 190
1193 4 2 0 1 194 263 119 164
1194 4 2 0 1 246 164 263 194
1195 4 2 0 1 129 190 132 189
1196 4 2 0 1 129 189 132 96
1197 4 2 0 1 201 190 132 129
1198 4 2 0 1 129 96 132 140
1199 4 2 0 1 130 201 190 133
1200 4 2 0 1 130 426 133 190
1201 4 2 0 1 130 202 133 164
1202 4 2 0 1 130 202 201 133
1203 4 2 0 1 245 176 390 135
1204 4 2 0 1 142 96 403 206
1205 4 2 0 1 96 403 206 344
1206 4 2 0 1 207 140 201 143
1207 4 2 0 1 140 207 206 143
1208 4 2 0 1 202 207 201 144
1209 4 2 0 1 202 201 207 244
1210 4 2 0 1 202 208 244 207
1211 4 2 0 1 202 208 207 144
1212 4 2 0 1 202 208 261 141
1213 4 2 0 1 202 371 141 261
1214 4 2 0 1 202 288 261 208
1215 4 2 0 1 261 202 371 288
1216 4 2 0 1 403 150 264 339
1217 4 2 0 1 261 208 153 273
1218 4 2 0 1 261 208 273 366
1219 4 2 0 1 208 153 273 31
1220 4 2 0 1 243 126 212 249
1221 4 2 0 1 419 126 305 243
1222 4 2 0 1 428 375 3 161
1223 4 2 0 1 3 375 241 161
1224 4 2 0 1 312 103 62 348
1225 4 2 0 1 62 348 104 312
1226 4 2 0 1 356 127 177 312
1227 4 2 0 1 356 312 177 398
1228 4 2 0 1 356 338 177 127
1229 4 2 0 1 369 332 254 108
1230 4 2 0 1 108 111 328 332
1231 4 2 0 1 409 332 108 328
1232 4 2 0 1 369 332 108 409
1233 4 2 0 1 254 111 109 108
1234 4 2 0 1 254 307 109 111
1235 4 2 0 1 111 307 109 197
1236 4 2 0 1 328 111 109 117
1237 4 2 0 1 117 120 111 197
1238 4 2 0 1 139 328 117 120
1239 4 2 0 1 117 198 120 197
1240 4 2 0 1 139 349 120 117
1241 4 2 0 1 117 120 198 349
1242 4 2 0 1 118 364 368 121
1243 4 2 0 1 221 197 121 118
1244 4 2 0 1 118 121 198 197
1245 4 2 0 1 221 121 364 118
1246 4 2 0 1 118 121 368 198
1247 4 2 0 1 349 198 132 136
1248 4 2 0 1 198 213 132 136
1249 4 2 0 1 133 137 213 198
1250 4 2 0 1 198 137 368 133
1251 4 2 0 1 143 213 214 145
1252 4 2 0 1 143 145 214 216
1253 4 2 0 1 144 146 214 213
1254 4 2 0 1 144 131 215 146
1255 4 2 0 1 144 146 215 214
1256 4 2 0 1 216 181 154 151
1257 4 2 0 1 216 154 214 151
1258 4 2 0 1 151 154 214 183
1259 4 2 0 1 151 154 183 181
1260 4 2 0 1 152 155 183 214
1261 4 2 0 1 215 214 155 152
1262 4 2 0 1 153 274 128 215
1263 4 2 0 1 153 274 396 231
1264 4 2 0 1 128 274 278 215
1265 4 2 0 1 396 274 278 231
1266 4 2 0 1 166 161 181 220
1267 4 2 0 1 181 162 161 166
1268 4 2 0 1 158 83 220 210
1269 4 2 0 1 161 99 162 181
1270 4 2 0 1 99 309 162 159
1271 4 2 0 1 181 159 99 162
1272 4 2 0 1 183 159 181 162
1273 4 2 0 1 183 162 309 159
1274 4 2 0 1 99 239 162 309
1275 4 2 0 1 160 163 336 174
1276 4 2 0 1 160 309 163 174
1277 4 2 0 1 160 174 247 309
1278 4 2 0 1 160 309 183 163
1279 4 2 0 1 160 231 336 163
1280 4 2 0 1 403 410 344 96
1281 4 2 0 1 55 294 165 291
1282 4 2 0 1 165 294 352 291
1283 4 2 0 1 302 238 297 236
1284 4 2 0 1 269 11 423 8
1285 4 2 0 1 6 1 7 2
1286 4 2 0 1 295 321 342 226
1287 4 2 0 1 25 411 11 12
1288 4 2 0 1 245 301 76 135
1289 4 2 0 1 9 269 11 283
1290 4 2 0 1 9 283 401 266
1291 4 2 0 1 158 220 181 99
1292 4 2 0 1 220 99 161 181
1293 4 2 0 1 247 309 239 99
1294 4 2 0 1 245 224 120 387
1295 4 2 0 1 167 378 286 165
1296 4 2 0 1 44 231 171 163
1297 4 2 0 1 44 163 171 374
1298 4 2 0 1 174 163 44 374
1299 4 2 0 1 336 163 44 174
1300 4 2 0 1 336 231 44 163
1301 4 2 0 1 44 281 171 231
1302 4 2 0 1 44 392 281 280
1303 4 2 0 1 44 281 392 171
1304 4 2 0 1 231 44 281 280
1305 4 2 0 1 41 340 192 193
1306 4 2 0 1 260 173 365 100
1307 4 2 0 1 260 100 365 97
1308 4 2 0 1 150 100 159 151
1309 4 2 0 1 173 158 339 100
1310 4 2 0 1 335 124 334 321
1311 4 2 0 1 335 337 222 124
1312 4 2 0 1 222 124 334 335
1313 4 2 0 1 302 147 297 238
1314 4 2 0 1 333 368 195 131
1315 4 2 0 1 164 371 333 195
1316 4 2 0 1 282 407 360 71
1317 4 2 0 1 50 395 102 293
1318 4 2 0 1 123 234 374 385
1319 4 2 0 1 239 242 123 374
1320 4 2 0 1 19 322 265 26
1321 4 2 0 1 336 298 289 41
1322 4 2 0 1 121 364 378 55
1323 4 2 0 1 121 378 364 167
1324 4 2 0 1 305 171 272 281
1325 4 2 0 1 272 281 171 392
1326 4 2 0 1 327 427 122 329
1327 4 2 0 1 69 114 318 332
1328 4 2 0 1 165 106 296 294
1329 4 2 0 1 165 294 296 352
1330 4 2 0 1 301 328 332 409
1331 4 2 0 1 365 264 339 422
1332 4 2 0 1 113 158 150 339
1333 4 2 0 1 159 158 150 181
1334 4 2 0 1 150 166 181 158
1335 4 2 0 1 113 158 220 166
1336 4 2 0 1 339 150 100 158
1337 4 2 0 1 316 159 151 183
1338 4 2 0 1 151 159 181 183
1339 4 2 0 1 152 316 160 340
1340 4 2 0 1 152 31 340 160
1341 4 2 0 1 153 231 31 160
1342 4 2 0 1 152 316 183 160
1343 4 2 0 1 181 166 154 162
1344 4 2 0 1 183 154 162 181
1345 4 2 0 1 428 373 302 3
1346 4 2 0 1 3 373 302 330
1347 4 2 0 1 373 330 341 302
1348 4 2 0 1 102 342 226 295
1349 4 2 0 1 101 102 295 342
1350 4 2 0 1 226 177 342 102
1351 4 2 0 1 61 138 369 60
1352 4 2 0 1 172 342 348 103
1353 4 2 0 1 186 254 343 111
1354 4 2 0 1 270 111 343 254
1355 4 2 0 1 270 185 254 343
1356 4 2 0 1 254 186 343 62
1357 4 2 0 1 127 188 112 104
1358 4 2 0 1 104 186 112 348
1359 4 2 0 1 112 188 186 104
1360 4 2 0 1 318 347 270 393
1361 4 2 0 1 69 393 64 318
1362 4 2 0 1 327 70 65 343
1363 4 2 0 1 393 65 343 327
1364 4 2 0 1 105 188 186 200
1365 4 2 0 1 199 105 200 179
1366 4 2 0 1 293 226 180 326
1367 4 2 0 1 180 232 263 221
1368 4 2 0 1 328 111 117 120
1369 4 2 0 1 120 111 122 328
1370 4 2 0 1 120 111 54 122
1371 4 2 0 1 120 197 54 111
1372 4 2 0 1 197 54 112 121
1373 4 2 0 1 121 252 55 112
1374 4 2 0 1 221 112 121 197
1375 4 2 0 1 221 112 252 121
1376 4 2 0 1 54 55 112 121
1377 4 2 0 1 129 115 189 331
1378 4 2 0 1 337 190 129 115
1379 4 2 0 1 129 115 190 189
1380 4 2 0 1 217 426 190 421
1381 4 2 0 1 189 117 190 349
1382 4 2 0 1 189 349 190 132
1383 4 2 0 1 377 349 117 189
1384 4 2 0 1 198 117 349 190
1385 4 2 0 1 190 198 132 349
1386 4 2 0 1 118 426 133 164
1387 4 2 0 1 118 190 198 133
1388 4 2 0 1 118 426 190 133
1389 4 2 0 1 118 164 133 368
1390 4 2 0 1 118 198 368 133
1391 4 2 0 1 245 76 176 135
1392 4 2 0 1 139 135 301 245
1393 4 2 0 1 198 137 323 121
1394 4 2 0 1 137 165 121 167
1395 4 2 0 1 402 287 96 267
1396 4 2 0 1 381 129 140 402
1397 4 2 0 1 381 140 129 201
1398 4 2 0 1 129 201 140 132
1399 4 2 0 1 130 381 201 244
1400 4 2 0 1 130 201 202 244
1401 4 2 0 1 284 246 362 164
1402 4 2 0 1 164 246 362 194
1403 4 2 0 1 202 144 201 133
1404 4 2 0 1 133 201 213 144
1405 4 2 0 1 202 144 133 333
1406 4 2 0 1 136 203 204 390
1407 4 2 0 1 136 213 145 204
1408 4 2 0 1 136 204 145 390
1409 4 2 0 1 213 146 204 137
1410 4 2 0 1 165 389 137 146
1411 4 2 0 1 361 146 165 137
1412 4 2 0 1 361 204 146 137
1413 4 2 0 1 319 203 176 77
1414 4 2 0 1 403 344 345 206
1415 4 2 0 1 230 403 344 345
1416 4 2 0 1 244 191 358 207
1417 4 2 0 1 279 366 261 79
1418 4 2 0 1 279 208 261 366
1419 4 2 0 1 142 150 206 403
1420 4 2 0 1 303 403 150 142
1421 4 2 0 1 142 150 216 206
1422 4 2 0 1 207 151 206 143
1423 4 2 0 1 216 206 151 143
1424 4 2 0 1 214 143 151 207
1425 4 2 0 1 143 216 214 151
1426 4 2 0 1 208 152 207 144
1427 4 2 0 1 144 214 152 207
1428 4 2 0 1 208 215 152 144
1429 4 2 0 1 144 214 215 152
1430 4 2 0 1 216 145 214 154
1431 4 2 0 1 216 145 154 238
1432 4 2 0 1 209 145 154 214
1433 4 2 0 1 215 146 155 214
1434 4 2 0 1 209 214 155 146
1435 4 2 0 1 215 212 155 146
1436 4 2 0 1 212 209 155 146
1437 4 2 0 1 134 424 302 147
1438 4 2 0 1 424 350 302 147
1439 4 2 0 1 424 313 209 353
1440 4 2 0 1 419 400 249 243
1441 4 2 0 1 419 80 400 243
1442 4 2 0 1 220 375 428 161
1443 4 2 0 1 171 94 351 305
1444 4 2 0 1 179 105 52 199
1445 4 2 0 1 66 199 52 105
1446 4 2 0 1 366 31 340 208
1447 4 2 0 1 366 193 340 31
1448 4 2 0 1 366 31 208 273
1449 4 2 0 1 273 396 31 153
1450 4 2 0 1 361 165 291 121
1451 4 2 0 1 323 38 54 121
1452 4 2 0 1 323 121 137 38
1453 4 2 0 1 361 121 137 165
1454 4 2 0 1 298 299 311 98
1455 4 2 0 1 357 298 86 82
1456 4 2 0 1 66 199 105 70
1457 4 2 0 1 187 138 386 300
1458 4 2 0 1 172 307 348 110
1459 4 2 0 1 254 109 307 172
1460 4 2 0 1 231 281 171 126
1461 4 2 0 1 331 189 223 360
1462 4 2 0 1 389 196 370 165
1463 4 2 0 1 113 150 303 403
1464 4 2 0 1 150 113 303 236
1465 4 2 0 1 20 411 404 19
1466 4 2 0 1 20 26 19 404
1467 4 2 0 1 20 277 19 408
1468 4 2 0 1 20 277 411 19
1469 4 2 0 1 116 30 157 394
1470 4 2 0 1 279 284 363 141
1471 4 2 0 1 363 362 141 284
1472 4 2 0 1 141 284 362 202
1473 4 2 0 1 226 124 263 72
1474 4 2 0 1 263 72 124 426
1475 4 2 0 1 231 336 280 396
1476 4 2 0 1 279 191 208 366
1477 4 2 0 1 62 186 343 320
1478 4 2 0 1 279 141 363 261
1479 4 2 0 1 290 30 277 116
1480 4 2 0 1 290 394 30 116
1481 4 2 0 1 33 116 271 34
1482 4 2 0 1 33 35 116 268
1483 4 2 0 1 34 116 107 219
1484 4 2 0 1 35 219 116 268
1485 4 2 0 1 122 114 324 328
1486 4 2 0 1 324 328 114 332
1487 4 2 0 1 239 162 123 170
1488 4 2 0 1 162 123 388 95
1489 4 2 0 1 241 388 162 123
1490 4 2 0 1 162 95 163 123
1491 4 2 0 1 162 163 239 123
1492 4 2 0 1 95 234 163 123
1493 4 2 0 1 95 126 163 234
1494 4 2 0 1 239 163 374 123
1495 4 2 0 1 123 163 374 234
1496 4 2 0 1 125 390 145 216
1497 4 2 0 1 125 143 142 216
1498 4 2 0 1 125 213 132 143
1499 4 2 0 1 125 143 216 145
1500 4 2 0 1 125 145 213 143
1501 4 2 0 1 125 390 135 136
1502 4 2 0 1 125 145 136 213
1503 4 2 0 1 125 145 390 136
1504 4 2 0 1 125 213 136 132
1505 4 2 0 1 122 420 325 324
1506 4 2 0 1 224 324 122 325
1507 4 2 0 1 178 420 325 122
1508 4 2 0 1 163 128 126 155
1509 4 2 0 1 126 155 278 243
1510 4 2 0 1 126 278 305 243
1511 4 2 0 1 312 127 177 103
1512 4 2 0 1 342 177 127 103
1513 4 2 0 1 312 127 103 348
1514 4 2 0 1 312 348 104 127
1515 4 2 0 1 342 348 103 127
1516 4 2 0 1 356 127 312 104
1517 4 2 0 1 348 112 104 127
1518 4 2 0 1 342 110 348 127
1519 4 2 0 1 226 110 342 127
1520 4 2 0 1 348 127 110 112
1521 4 2 0 1 153 160 152 128
1522 4 2 0 1 153 215 128 152
1523 4 2 0 1 152 215 128 155
1524 4 2 0 1 152 128 183 155
1525 4 2 0 1 153 128 231 160
1526 4 2 0 1 152 183 128 160
1527 4 2 0 1 183 128 163 155
1528 4 2 0 1 128 231 163 126
1529 4 2 0 1 183 163 128 160
1530 4 2 0 1 128 163 231 160
1531 4 2 0 1 133 368 333 131
1532 4 2 0 1 133 368 131 137
1533 4 2 0 1 133 137 131 213
1534 4 2 0 1 133 131 333 144
1535 4 2 0 1 133 213 131 144
1536 4 2 0 1 368 167 131 137
1537 4 2 0 1 131 167 389 137
1538 4 2 0 1 213 137 131 146
1539 4 2 0 1 131 137 389 146
1540 4 2 0 1 333 131 288 144
1541 4 2 0 1 213 146 131 144
1542 4 2 0 1 131 215 288 144
1543 4 2 0 1 131 215 275 288
1544 4 2 0 1 131 389 275 215
1545 4 2 0 1 131 195 275 196
1546 4 2 0 1 131 196 275 389
1547 4 2 0 1 134 148 147 390
1548 4 2 0 1 134 148 390 145
1549 4 2 0 1 424 148 147 134
1550 4 2 0 1 209 148 134 145
1551 4 2 0 1 424 148 134 209
1552 4 2 0 1 330 302 134 424
1553 4 2 0 1 330 154 209 134
1554 4 2 0 1 330 424 134 209
1555 4 2 0 1 330 134 302 3
1556 4 2 0 1 302 134 166 3
1557 4 2 0 1 134 238 145 390
1558 4 2 0 1 134 154 145 238
1559 4 2 0 1 209 154 145 134
1560 4 2 0 1 147 238 390 297
1561 4 2 0 1 134 390 147 238
1562 4 2 0 1 147 302 134 238
1563 4 2 0 1 93 315 388 123
1564 4 2 0 1 388 123 315 95
1565 4 2 0 1 93 251 388 315
1566 4 2 0 1 317 388 251 315
1567 4 2 0 1 28 135 125 297
1568 4 2 0 1 125 297 390 216
1569 4 2 0 1 125 135 390 297
1570 4 2 0 1 367 18 22 15
1571 4 2 0 1 60 138 172 58
1572 4 2 0 1 256 24 16 25
1573 4 2 0 1 259 16 256 24
1574 4 2 0 1 40 45 320 52
1575 4 2 0 1 50 398 35 356
1576 4 2 0 1 319 325 224 310
1577 4 2 0 1 304 332 270 318
1578 4 2 0 1 269 7 423 283
1579 4 2 0 1 7 269 423 1
1580 4 2 0 1 74 301 409 139
1581 4 2 0 1 429 191 207 100
1582 4 2 0 1 429 151 100 207
1583 4 2 0 1 429 151 316 100
1584 4 2 0 1 429 191 100 340
1585 4 2 0 1 429 316 340 100
1586 4 2 0 1 430 41 298 357
1587 4 2 0 1 336 41 289 354
1588 4 2 0 1 226 124 110 263
1589 4 2 0 1 226 263 110 127
1590 4 2 0 1 416 62 104 312
1591 4 2 0 1 416 62 312 372
1592 4 2 0 1 64 347 318 393
1593 4 2 0 1 383 88 289 430
1594 4 2 0 1 383 430 298 357
1595 4 2 0 1 334 124 222 384
1596 4 2 0 1 222 384 218 386
1597 4 2 0 1 334 222 386 384
1598 4 2 0 1 97 100 264 345
1599 4 2 0 1 365 100 264 97
$EndElements
