$MeshFormat
2.2 0 8
$EndMeshFormat
$Nodes
297
0 -125.7525 -4.2632564E-14 -2.1149748E-16
1 -125.7525 4.2632564E-14 45
2 -125.7525 13.772446 23.43164
3 -125.7525 14.062568 -3.832081E-15
4 -125.7525 14.343736 45
5 -125.7525 26.23533 19.06349
6 -125.7525 33.18753 -4.4989736E-15
7 -125.7525 45 -1.5439317E-14
8 -125.7525 45 12.937538
9 -125.7525 45 33.75004
10 -125.7525 45 45
11 -120.43853 27.000042 -9.348203E-15
12 -119.37543 40.500053 -1.3916553E-14
13 -115.64882 18.702757 45
14 -111.99549 45 37.898426
15 -109.00286 4.2665537E-14 45
16 -107.99467 -2.5629727E-16 22.286865
17 -103.36845 -4.2632564E-14 -2.1149748E-16
18 -103.32928 45 11.501847
19 -97.54107 29.174496 45
20 -95.75194 45 45
21 -94.01078 45 -1.5439317E-14
22 -80.31584 20.725693 -7.224989E-15
23 -75.28252 2.9111147E-14 34.103745
24 -68.7057 32.604942 45
25 -64.326164 5.3642166E-14 45
26 -53.5464 12.07002 45
27 -50.768917 45 45
28 -41.899628 35.43052 45
29 -36.066963 -4.4618668E-15 -2.1149748E-16
30 -35.7525 15.75 22.5
31 -35.7525 15.75 30.937502
32 -35.7525 15.75 45
33 -35.7525 29.25 22.5
34 -35.7525 29.25 33.75
35 -35.7525 29.25 45
36 -34.43537 45 20.103859
37 -28.550734 6.57252E-14 45
38 -25.409666 14.715716 32.13282
39 -24.689116 45 -1.4543922E-14
40 -23.162611 30.50899 22.5
41 -21.875 14.36225 22.5
42 -21.0433 14.917114 -5.2593885E-15
43 -19.660566 14.140806 45
44 -18.60028 30.965221 45
45 -18.390902 30.986158 33.468735
46 -11.5090685 38.250404 -1.3155282E-14
47 -7.406094 45 31.781246
48 -6.3434405 39.10853 45
49 -5.8972187 22.647224 22.5
50 -5.454691 6.749123 -2.4953737E-15
51 -5.443941 2.222655E-14 15.407235
52 -2.0025 12.375 22.5
53 -2.0025 12.375 33.750023
54 -2.0025 12.375 45
55 -2.0025 15.75 22.5
56 -2.0025 15.75 33.750023
57 -2.0025 15.75 45
58 -2.0025 29.25 22.5
59 -2.0025 29.25 33.74993
60 -2.0025 29.25 45
61 -2.0025 32.625 22.5
62 -2.0025 32.625 33.74995
63 -2.0025 32.625 45
64 -1.7457421 1.7215192E-14 -2.1149748E-16
65 -1.493439 5.2147594E-14 33.33034
66 -1.0416336 45 45
67 -0.89862174 1.9955657E-14 9.070328
68 4.738828 6.81582 45
69 5.8919034 29.25 22.5
70 6.9063864 45 -1.5078667E-14
71 9.963912 18.452738 -6.45583E-15
72 12.409952 15.75 45
73 13.869604 29.25 45
74 14.028519 45 4.499976
75 14.281881 29.25 34.066395
76 18.735867 8.093983E-14 45
77 19.32127 45 35.472775
78 20.09536 3.0642155E-14 -2.1149747E-16
79 20.096794 15.75 33.064423
80 22.556475 15.75 22.5
81 22.817413 8.993646 45
82 23.736176 39.082233 45
83 24.263872 29.25 22.5
84 24.5243 45 -1.5439317E-14
85 30.971025 45 10.967905
86 31.7475 4.2632564E-14 22.5
87 31.7475 6.3948846E-14 33.750008
88 31.7475 8.526513E-14 45
89 31.7475 7.1313796 22.5
90 31.7475 15.75 22.5
91 31.7475 15.75 36.562542
92 31.7475 15.75 45
93 31.7475 29.25 22.5
94 31.7475 29.25 30.937569
95 31.7475 29.25 45
96 31.7475 37.86492 22.5
97 31.7475 45 22.5
98 31.7475 45 32.06251
99 31.7475 45 45
100 31.747501 8.052503 35.578213
101 32.025402 3.980625E-14 12.232825
102 38.497498 29.584394 10.845514
103 38.497498 6.477229 16.874693
104 38.4975 4.2632564E-14 -2.1149748E-16
105 38.4975 4.2632564E-14 22.5
106 38.4975 14.734417 22.5
107 38.4975 20.24426 -6.756155E-15
108 38.4975 45 -1.5439317E-14
109 38.4975 45 14.062502
110 38.4975 45 22.5
111 -122.43558 3.7155647 3.7155647
112 -122.43558 41.284435 41.284435
113 -110.31126 3.7155647 28.761478
114 -110.31126 16.238522 16.238522
115 -110.31126 16.238522 28.761478
116 -110.31126 28.761478 16.238522
117 -110.31126 28.761478 28.761478
118 -98.186935 3.7155647 3.7155647
119 -98.186935 16.238522 16.238522
120 -98.186935 16.238522 28.761478
121 -98.186935 16.238522 41.284435
122 -98.186935 28.761478 16.238522
123 -98.186935 28.761478 28.761478
124 -86.062614 16.238522 16.238522
125 -86.062614 16.238522 28.761478
126 -86.062614 28.761478 16.238522
127 -86.062614 28.761478 28.761478
128 -73.9383 16.238522 3.7155647
129 -73.9383 16.238522 16.238522
130 -73.9383 16.238522 28.761478
131 -73.9383 28.761478 16.238522
132 -73.9383 28.761478 28.761478
133 -73.9383 28.761478 41.284435
134 -73.9383 41.284435 28.761478
135 -61.81398 16.238522 16.238522
136 -61.81398 16.238522 28.761478
137 -61.81398 28.761478 16.238522
138 -61.81398 28.761478 28.761478
139 -61.81398 28.761478 41.284435
140 -49.68966 16.238522 16.238522
141 -49.68966 16.238522 28.761478
142 -49.68966 28.761478 16.238522
143 -49.68966 28.761478 28.761478
144 -37.565342 16.238522 16.238522
145 -37.565342 41.284435 3.7155647
146 -37.565342 41.284435 28.761478
147 -25.441021 3.7155647 3.7155647
148 -25.441021 16.238522 3.7155647
149 -25.441021 16.238522 16.238522
150 -13.316703 41.284435 28.761478
151 -1.1923833 28.761478 16.238522
152 -1.1923833 41.284435 3.7155647
153 -1.1923833 41.284435 28.761478
154 10.931936 3.7155647 28.761478
155 10.931936 28.761478 16.238522
156 23.056255 3.7155647 28.761478
157 23.056255 16.238522 16.238522
158 35.180576 16.238522 3.7155647
159 35.180576 41.284435 16.238522
160 -25.441021 7.4311295 45
161 -61.81398 16.238522 45
162 -49.68966 28.761478 45
163 -110.31126 45 16.238522
164 -110.31126 45 28.761478
165 -125.7525 25.335493 3.7155647
166 10.931936 2.500888E-14 -2.1149747E-16
167 31.583286 3.8039223E-14 3.7155647
168 19.458967 4.379358E-14 25.045914
169 10.931936 4.7749538E-14 28.761478
170 10.931936 6.799193E-14 41.284435
171 23.056255 6.490079E-14 37.56887
172 -86.062614 45 7.4311295
173 -86.062614 45 16.238522
174 -73.9383 45 3.7155647
175 -73.9383 45 16.238522
176 -61.81398 45 16.238522
177 -46.092373 45 7.4311295
178 -49.68966 45 16.238522
179 -125.7525 37.85845 16.238522
180 -125.7525 28.761478 28.761478
181 -125.7525 28.761478 37.85845
182 31.583286 3.7155647 -1.3286251E-15
183 23.056255 16.238522 -5.583458E-15
184 31.583286 16.238522 -5.495083E-15
185 -13.316703 45 45
186 -86.062614 32.477043 45
187 -82.46533 45 45
188 -106.71397 45 -1.5439317E-14
189 7.334647 2.664233E-14 16.238522
190 19.458967 3.3315547E-14 12.522957
191 -61.81398 2.198876E-14 25.045914
192 -53.28695 1.23777E-14 16.238522
193 -53.28695 2.7000717E-14 25.045914
194 -41.16263 1.333505E-14 12.522957
195 -41.16263 3.412706E-14 25.045914
196 -29.038311 2.0019686E-14 12.522957
197 -29.038311 3.3192822E-14 25.045914
198 -110.31126 28.761478 45
199 -89.659904 -3.4857632E-14 -2.1149758E-16
200 -77.53558 -2.7981205E-14 1.7763568E-15
201 -77.53558 12.522957 -4.473079E-15
202 -86.062614 16.238522 -5.7065478E-15
203 -65.41127 -2.1104778E-14 1.7763568E-15
204 -53.28695 -1.4228351E-14 1.7763568E-15
205 -53.28695 12.522957 -4.4492155E-15
206 -61.81398 16.238522 -5.7870947E-15
207 -41.16263 12.522957 -4.5807224E-15
208 -25.441021 1.5647397E-15 -2.114976E-16
209 -25.441021 3.7155647 -1.819224E-15
210 -13.316703 45 16.238522
211 -1.1923833 45 19.954086
212 -16.913992 7.89041E-15 -2.1149771E-16
213 -16.913992 1.4316312E-14 12.522957
214 -98.186935 3.0842706E-14 37.56887
215 -89.659904 3.2647994E-14 37.56887
216 -94.589645 45 19.954086
217 -86.062614 45 28.761478
218 -73.9383 45 32.477043
219 -61.81398 45 28.761478
220 -49.68966 45 28.761478
221 -106.71397 7.4311295 45
222 -13.316703 4.191998E-14 28.761478
223 -110.31126 16.238522 -4.392307E-15
224 -110.31126 25.045914 -8.686934E-15
225 -98.186935 16.238522 -4.392307E-15
226 -89.659904 25.045914 -8.776145E-15
227 -98.186935 28.761478 -9.944266E-15
228 -77.53558 37.56887 -1.2766002E-14
229 -13.316703 12.522957 -4.4985242E-15
230 9.422261 15.75 22.5
231 10.931936 28.761478 -9.84834E-15
232 19.458967 37.56887 -1.2904395E-14
233 23.056255 25.045914 -8.880918E-15
234 31.583286 37.56887 -1.3152588E-14
235 -1.1923833 12.522957 -4.449216E-15
236 -1.1923833 28.761478 -9.600148E-15
237 -25.441021 45 28.761478
238 -98.186935 45 28.761478
239 -70.34101 3.7155647 45
240 -70.34101 16.238522 45
241 -16.913992 28.761478 -9.5150565E-15
242 -61.81398 45 45
243 -73.9383 45 45
244 -37.565342 45 45
245 -25.441021 45 45
246 -110.31126 3.7155647 -1.1681159E-15
247 -125.7525 28.761478 45
248 -48.172077 5.7981275E-14 45
249 10.931936 45 16.238522
250 10.931936 45 28.761478
251 23.056255 45 16.238522
252 23.056255 45 28.761478
253 14.529224 45 45
254 38.4975 27.706528 22.5
255 -86.062614 7.4311295 45
256 -86.062614 16.238522 45
257 -8.593774 45 -1.5099033E-14
258 -1.1923833 45 -1.4912879E-14
259 -98.186935 -1.6722834E-14 12.522957
260 -89.659904 -1.5622035E-14 12.522957
261 -77.53558 -8.043983E-15 12.522957
262 -77.53558 1.1077696E-14 25.045914
263 -86.062614 1.6683173E-14 28.761478
264 -65.41127 -9.176389E-16 12.522957
265 -25.441021 37.56887 45
266 -113.90855 -3.7229134E-14 3.7155647
267 -113.90855 -1.15519065E-14 16.238522
268 -13.316703 13.50642 22.5
269 -113.90855 2.751423E-14 37.56887
270 -125.7525 1.5916554E-14 29.73748
271 -101.784225 1.3354696E-14 28.761478
272 -25.441021 28.761478 -9.540228E-15
273 -25.441021 37.56887 -1.20931216E-14
274 -114.20145 45 45
275 -125.7525 -8.881784E-15 16.238522
276 2.1512635 7.5495166E-14 45
277 -13.316703 7.1054274E-14 45
278 -125.7525 16.238522 12.812537
279 -53.28695 25.045914 -8.306332E-15
280 -61.81398 28.761478 -9.646728E-15
281 -29.038311 16.238522 -5.6903445E-15
282 -98.186935 4.4955416E-14 45
283 -89.659904 4.6760705E-14 45
284 -77.53558 5.087585E-14 45
285 -25.441021 45 16.238522
286 38.4975 28.761478 -1.0099347E-14
287 -73.9383 28.761478 -9.803332E-15
288 -65.41127 37.56887 -1.2609398E-14
289 -53.28695 37.56887 -1.2452794E-14
290 -41.16263 28.761478 -9.379984E-15
291 -73.9383 43.89759 -1.5987212E-14
292 -83.98291 45 -1.5099033E-14
293 -61.81398 45 -1.5099033E-14
294 -49.68966 45 -1.4210855E-14
295 -39.645046 45 -1.4210855E-14
296 -13.316703 31.49358 22.5
$EndNodes
$Elements
932
0 4 2 0 1 147 149 268 148
1 4 2 0 1 119 225 118 267
2 4 2 0 1 265 146 45 34
3 4 2 0 1 247 198 181 112
4 4 2 0 1 159 110 109 97
5 4 2 0 1 228 174 131 288
6 4 2 0 1 211 150 61 47
7 4 2 0 1 248 193 191 141
8 4 2 0 1 191 141 193 264
9 4 2 0 1 135 264 203 140
10 4 2 0 1 116 3 114 278
11 4 2 0 1 69 61 62 153
12 4 2 0 1 157 83 102 233
13 4 2 0 1 125 120 215 256
14 4 2 0 1 45 245 44 185
15 4 2 0 1 249 74 251 231
16 4 2 0 1 296 272 210 46
17 4 2 0 1 280 137 206 142
18 4 2 0 1 253 73 63 62
19 4 2 0 1 147 213 212 229
20 4 2 0 1 133 240 130 139
21 4 2 0 1 74 231 249 70
22 4 2 0 1 33 146 285 36
23 4 2 0 1 242 138 219 27
24 4 2 0 1 20 123 187 19
25 4 2 0 1 253 153 75 62
26 4 2 0 1 156 169 154 168
27 4 2 0 1 71 233 231 157
28 4 2 0 1 16 214 120 113
29 4 2 0 1 181 4 2 13
30 4 2 0 1 148 40 149 296
31 4 2 0 1 33 285 40 290
32 4 2 0 1 148 296 272 40
33 4 2 0 1 287 128 129 22
34 4 2 0 1 69 62 61 59
35 4 2 0 1 170 81 76 79
36 4 2 0 1 214 256 215 120
37 4 2 0 1 71 230 151 55
38 4 2 0 1 151 46 152 236
39 4 2 0 1 30 41 38 197
40 4 2 0 1 220 33 34 143
41 4 2 0 1 253 47 62 66
42 4 2 0 1 190 230 157 71
43 4 2 0 1 175 172 126 173
44 4 2 0 1 12 224 116 11
45 4 2 0 1 125 240 262 130
46 4 2 0 1 190 183 78 166
47 4 2 0 1 113 2 114 16
48 4 2 0 1 124 225 202 118
49 4 2 0 1 108 109 234 102
50 4 2 0 1 139 27 138 242
51 4 2 0 1 116 2 117 5
52 4 2 0 1 140 207 144 194
53 4 2 0 1 263 215 240 125
54 4 2 0 1 157 231 83 233
55 4 2 0 1 130 161 240 262
56 4 2 0 1 263 215 125 120
57 4 2 0 1 116 12 11 6
58 4 2 0 1 146 237 40 285
59 4 2 0 1 290 142 140 33
60 4 2 0 1 232 159 234 85
61 4 2 0 1 123 116 216 122
62 4 2 0 1 119 120 16 259
63 4 2 0 1 214 271 120 215
64 4 2 0 1 119 259 267 118
65 4 2 0 1 123 116 119 114
66 4 2 0 1 202 199 128 129
67 4 2 0 1 126 225 124 119
68 4 2 0 1 2 270 275 16
69 4 2 0 1 164 179 8 163
70 4 2 0 1 126 119 122 225
71 4 2 0 1 133 130 240 125
72 4 2 0 1 17 202 225 118
73 4 2 0 1 263 240 239 262
74 4 2 0 1 32 141 31 248
75 4 2 0 1 123 116 122 119
76 4 2 0 1 127 122 126 119
77 4 2 0 1 143 141 34 162
78 4 2 0 1 133 132 139 130
79 4 2 0 1 157 106 158 102
80 4 2 0 1 98 99 77 82
81 4 2 0 1 82 75 253 77
82 4 2 0 1 68 72 56 57
83 4 2 0 1 77 75 250 252
84 4 2 0 1 51 230 67 55
85 4 2 0 1 234 159 109 85
86 4 2 0 1 144 40 33 149
87 4 2 0 1 253 63 66 62
88 4 2 0 1 124 125 262 130
89 4 2 0 1 91 81 88 92
90 4 2 0 1 82 73 253 75
91 4 2 0 1 47 150 61 62
92 4 2 0 1 40 285 272 290
93 4 2 0 1 296 45 150 40
94 4 2 0 1 45 237 245 185
95 4 2 0 1 153 61 62 47
96 4 2 0 1 34 44 265 35
97 4 2 0 1 143 138 136 162
98 4 2 0 1 62 150 185 47
99 4 2 0 1 265 245 44 45
100 4 2 0 1 124 130 262 129
101 4 2 0 1 62 60 73 63
102 4 2 0 1 231 151 155 249
103 4 2 0 1 241 46 151 236
104 4 2 0 1 75 95 82 73
105 4 2 0 1 40 272 285 296
106 4 2 0 1 143 136 141 162
107 4 2 0 1 265 45 44 34
108 4 2 0 1 59 60 73 62
109 4 2 0 1 58 151 296 61
110 4 2 0 1 75 250 153 253
111 4 2 0 1 75 62 73 253
112 4 2 0 1 170 72 81 79
113 4 2 0 1 265 146 244 237
114 4 2 0 1 45 146 40 34
115 4 2 0 1 244 146 220 36
116 4 2 0 1 147 268 149 196
117 4 2 0 1 75 62 59 73
118 4 2 0 1 146 34 220 33
119 4 2 0 1 146 33 220 36
120 4 2 0 1 45 150 237 185
121 4 2 0 1 69 153 211 61
122 4 2 0 1 176 137 289 178
123 4 2 0 1 164 179 5 9
124 4 2 0 1 69 153 250 211
125 4 2 0 1 44 185 48 62
126 4 2 0 1 45 237 150 40
127 4 2 0 1 65 53 68 154
128 4 2 0 1 62 48 63 66
129 4 2 0 1 62 47 185 66
130 4 2 0 1 62 48 66 185
131 4 2 0 1 62 185 150 45
132 4 2 0 1 71 230 155 151
133 4 2 0 1 68 53 56 154
134 4 2 0 1 80 230 157 190
135 4 2 0 1 69 211 151 61
136 4 2 0 1 82 98 75 77
137 4 2 0 1 99 95 82 98
138 4 2 0 1 77 253 250 75
139 4 2 0 1 82 95 75 98
140 4 2 0 1 77 98 75 252
141 4 2 0 1 251 252 96 97
142 4 2 0 1 107 233 102 286
143 4 2 0 1 97 96 98 252
144 4 2 0 1 251 159 97 96
145 4 2 0 1 258 152 211 46
146 4 2 0 1 211 47 61 153
147 4 2 0 1 251 97 159 85
148 4 2 0 1 80 154 190 156
149 4 2 0 1 102 234 286 233
150 4 2 0 1 85 159 109 97
151 4 2 0 1 296 46 151 241
152 4 2 0 1 296 272 46 241
153 4 2 0 1 268 147 213 196
154 4 2 0 1 148 268 296 149
155 4 2 0 1 210 150 211 47
156 4 2 0 1 285 237 40 150
157 4 2 0 1 157 155 83 231
158 4 2 0 1 211 257 46 210
159 4 2 0 1 296 40 150 285
160 4 2 0 1 172 126 131 175
161 4 2 0 1 151 152 46 211
162 4 2 0 1 179 12 6 8
163 4 2 0 1 164 9 5 180
164 4 2 0 1 151 71 231 155
165 4 2 0 1 46 272 210 273
166 4 2 0 1 170 72 79 154
167 4 2 0 1 232 234 84 85
168 4 2 0 1 69 59 75 62
169 4 2 0 1 108 234 109 85
170 4 2 0 1 193 30 31 195
171 4 2 0 1 151 249 236 152
172 4 2 0 1 235 55 151 229
173 4 2 0 1 42 147 212 229
174 4 2 0 1 102 233 83 251
175 4 2 0 1 71 157 231 155
176 4 2 0 1 50 229 55 235
177 4 2 0 1 42 241 272 148
178 4 2 0 1 231 74 251 232
179 4 2 0 1 69 250 153 75
180 4 2 0 1 296 210 211 46
181 4 2 0 1 235 151 236 229
182 4 2 0 1 102 159 234 232
183 4 2 0 1 233 234 232 102
184 4 2 0 1 102 251 159 232
185 4 2 0 1 69 61 151 58
186 4 2 0 1 69 211 249 151
187 4 2 0 1 231 232 251 233
188 4 2 0 1 237 150 210 47
189 4 2 0 1 49 296 58 151
190 4 2 0 1 235 71 151 55
191 4 2 0 1 67 235 50 55
192 4 2 0 1 236 249 151 231
193 4 2 0 1 236 70 249 231
194 4 2 0 1 36 33 178 177
195 4 2 0 1 273 46 39 210
196 4 2 0 1 273 285 272 210
197 4 2 0 1 144 40 149 207
198 4 2 0 1 83 96 252 98
199 4 2 0 1 102 159 109 234
200 4 2 0 1 210 150 237 285
201 4 2 0 1 285 210 296 272
202 4 2 0 1 207 147 196 29
203 4 2 0 1 69 153 62 75
204 4 2 0 1 235 151 71 236
205 4 2 0 1 45 61 150 62
206 4 2 0 1 296 61 151 211
207 4 2 0 1 296 211 151 46
208 4 2 0 1 296 211 210 150
209 4 2 0 1 102 251 83 96
210 4 2 0 1 83 98 93 96
211 4 2 0 1 102 251 232 233
212 4 2 0 1 232 85 251 159
213 4 2 0 1 149 41 268 296
214 4 2 0 1 110 159 96 97
215 4 2 0 1 83 94 98 75
216 4 2 0 1 83 231 155 249
217 4 2 0 1 83 251 233 231
218 4 2 0 1 79 156 100 76
219 4 2 0 1 149 296 40 41
220 4 2 0 1 230 155 151 69
221 4 2 0 1 55 69 230 151
222 4 2 0 1 42 147 229 148
223 4 2 0 1 69 249 155 151
224 4 2 0 1 69 250 249 211
225 4 2 0 1 83 252 96 251
226 4 2 0 1 249 152 70 236
227 4 2 0 1 151 249 152 211
228 4 2 0 1 69 61 58 59
229 4 2 0 1 83 94 93 98
230 4 2 0 1 83 98 252 75
231 4 2 0 1 83 251 249 252
232 4 2 0 1 83 249 251 231
233 4 2 0 1 83 250 252 249
234 4 2 0 1 83 249 155 69
235 4 2 0 1 83 75 252 250
236 4 2 0 1 83 250 69 75
237 4 2 0 1 83 250 249 69
238 4 2 0 1 102 96 93 110
239 4 2 0 1 102 159 96 110
240 4 2 0 1 102 159 251 96
241 4 2 0 1 102 93 96 83
242 4 2 0 1 107 233 183 102
243 4 2 0 1 71 231 236 151
244 4 2 0 1 67 235 55 71
245 4 2 0 1 189 230 67 51
246 4 2 0 1 65 277 54 53
247 4 2 0 1 229 151 296 49
248 4 2 0 1 52 55 230 51
249 4 2 0 1 79 154 80 156
250 4 2 0 1 104 182 158 107
251 4 2 0 1 148 241 272 296
252 4 2 0 1 157 158 183 102
253 4 2 0 1 157 233 102 183
254 4 2 0 1 157 83 93 102
255 4 2 0 1 157 102 93 106
256 4 2 0 1 157 106 93 90
257 4 2 0 1 105 89 106 101
258 4 2 0 1 157 89 106 90
259 4 2 0 1 229 49 55 151
260 4 2 0 1 149 40 33 41
261 4 2 0 1 149 196 268 41
262 4 2 0 1 86 190 89 101
263 4 2 0 1 229 55 49 268
264 4 2 0 1 42 148 229 241
265 4 2 0 1 71 157 155 230
266 4 2 0 1 229 151 236 241
267 4 2 0 1 229 241 296 151
268 4 2 0 1 229 49 296 268
269 4 2 0 1 229 241 148 296
270 4 2 0 1 229 268 296 148
271 4 2 0 1 71 183 233 157
272 4 2 0 1 67 55 230 71
273 4 2 0 1 229 148 147 268
274 4 2 0 1 229 213 268 147
275 4 2 0 1 158 183 184 182
276 4 2 0 1 50 51 55 229
277 4 2 0 1 50 212 51 229
278 4 2 0 1 80 190 89 156
279 4 2 0 1 107 158 106 102
280 4 2 0 1 107 102 183 158
281 4 2 0 1 166 71 67 230
282 4 2 0 1 190 78 183 101
283 4 2 0 1 156 168 86 171
284 4 2 0 1 190 166 189 230
285 4 2 0 1 144 30 196 149
286 4 2 0 1 189 67 230 166
287 4 2 0 1 64 50 212 67
288 4 2 0 1 31 34 33 141
289 4 2 0 1 31 141 33 30
290 4 2 0 1 279 206 140 142
291 4 2 0 1 76 100 81 88
292 4 2 0 1 53 55 154 52
293 4 2 0 1 190 89 101 157
294 4 2 0 1 166 190 183 71
295 4 2 0 1 71 183 157 190
296 4 2 0 1 166 230 190 71
297 4 2 0 1 193 195 31 248
298 4 2 0 1 51 213 229 212
299 4 2 0 1 51 212 50 67
300 4 2 0 1 51 213 268 229
301 4 2 0 1 51 50 55 67
302 4 2 0 1 79 100 89 90
303 4 2 0 1 161 191 141 26
304 4 2 0 1 89 101 157 106
305 4 2 0 1 101 157 183 190
306 4 2 0 1 86 89 105 101
307 4 2 0 1 101 158 183 157
308 4 2 0 1 101 106 158 157
309 4 2 0 1 101 183 167 78
310 4 2 0 1 101 104 158 106
311 4 2 0 1 105 103 104 101
312 4 2 0 1 103 106 104 101
313 4 2 0 1 101 167 158 104
314 4 2 0 1 101 158 167 183
315 4 2 0 1 80 89 190 157
316 4 2 0 1 156 190 89 86
317 4 2 0 1 105 101 106 103
318 4 2 0 1 222 196 197 41
319 4 2 0 1 171 89 87 86
320 4 2 0 1 52 268 55 51
321 4 2 0 1 276 68 65 54
322 4 2 0 1 230 190 154 189
323 4 2 0 1 79 156 76 154
324 4 2 0 1 222 41 268 196
325 4 2 0 1 171 86 156 89
326 4 2 0 1 30 196 41 197
327 4 2 0 1 91 100 79 90
328 4 2 0 1 91 88 81 100
329 4 2 0 1 91 81 92 79
330 4 2 0 1 91 100 81 79
331 4 2 0 1 54 68 65 53
332 4 2 0 1 33 40 144 290
333 4 2 0 1 254 110 102 93
334 4 2 0 1 222 277 65 53
335 4 2 0 1 100 79 89 156
336 4 2 0 1 100 89 87 171
337 4 2 0 1 80 90 157 93
338 4 2 0 1 80 83 93 157
339 4 2 0 1 80 90 79 89
340 4 2 0 1 69 80 155 83
341 4 2 0 1 80 69 155 230
342 4 2 0 1 80 155 157 230
343 4 2 0 1 80 83 157 155
344 4 2 0 1 80 90 89 157
345 4 2 0 1 80 89 79 156
346 4 2 0 1 52 154 65 51
347 4 2 0 1 52 51 230 154
348 4 2 0 1 79 72 81 92
349 4 2 0 1 51 229 268 55
350 4 2 0 1 55 151 58 69
351 4 2 0 1 55 58 151 49
352 4 2 0 1 54 53 56 68
353 4 2 0 1 54 57 68 56
354 4 2 0 1 31 197 30 38
355 4 2 0 1 140 30 141 193
356 4 2 0 1 140 264 193 141
357 4 2 0 1 30 41 196 149
358 4 2 0 1 30 33 41 149
359 4 2 0 1 31 197 195 30
360 4 2 0 1 192 195 30 193
361 4 2 0 1 207 140 204 194
362 4 2 0 1 56 154 72 68
363 4 2 0 1 56 55 154 53
364 4 2 0 1 56 79 72 154
365 4 2 0 1 230 79 154 80
366 4 2 0 1 170 72 154 68
367 4 2 0 1 37 38 197 31
368 4 2 0 1 160 32 43 38
369 4 2 0 1 171 100 156 76
370 4 2 0 1 156 171 169 168
371 4 2 0 1 191 23 25 239
372 4 2 0 1 132 127 134 126
373 4 2 0 1 268 277 222 53
374 4 2 0 1 170 76 154 79
375 4 2 0 1 37 31 197 195
376 4 2 0 1 277 160 38 37
377 4 2 0 1 65 51 222 52
378 4 2 0 1 76 79 81 100
379 4 2 0 1 222 53 65 52
380 4 2 0 1 222 52 51 268
381 4 2 0 1 65 52 53 154
382 4 2 0 1 65 68 170 154
383 4 2 0 1 65 170 68 276
384 4 2 0 1 43 277 160 38
385 4 2 0 1 277 53 268 43
386 4 2 0 1 222 197 37 38
387 4 2 0 1 277 268 38 43
388 4 2 0 1 222 38 41 197
389 4 2 0 1 135 141 136 264
390 4 2 0 1 193 30 141 31
391 4 2 0 1 194 196 144 30
392 4 2 0 1 192 30 195 194
393 4 2 0 1 26 35 32 34
394 4 2 0 1 19 115 117 123
395 4 2 0 1 130 161 262 136
396 4 2 0 1 219 131 134 175
397 4 2 0 1 26 248 191 141
398 4 2 0 1 284 239 25 23
399 4 2 0 1 120 125 127 256
400 4 2 0 1 262 191 136 161
401 4 2 0 1 120 215 271 263
402 4 2 0 1 143 135 142 140
403 4 2 0 1 164 116 5 179
404 4 2 0 1 143 33 141 140
405 4 2 0 1 262 191 239 23
406 4 2 0 1 126 226 124 225
407 4 2 0 1 179 12 8 188
408 4 2 0 1 143 140 142 33
409 4 2 0 1 262 161 240 239
410 4 2 0 1 143 135 136 138
411 4 2 0 1 143 140 141 135
412 4 2 0 1 248 31 193 141
413 4 2 0 1 26 248 141 32
414 4 2 0 1 268 41 222 38
415 4 2 0 1 20 123 117 238
416 4 2 0 1 140 193 264 192
417 4 2 0 1 19 115 221 13
418 4 2 0 1 19 117 115 13
419 4 2 0 1 123 115 117 114
420 4 2 0 1 132 129 130 124
421 4 2 0 1 162 161 141 26
422 4 2 0 1 132 131 126 134
423 4 2 0 1 117 115 13 2
424 4 2 0 1 28 34 143 220
425 4 2 0 1 124 129 199 202
426 4 2 0 1 138 130 129 136
427 4 2 0 1 191 161 239 26
428 4 2 0 1 161 141 191 136
429 4 2 0 1 32 34 31 141
430 4 2 0 1 135 200 264 261
431 4 2 0 1 129 128 135 261
432 4 2 0 1 135 203 200 206
433 4 2 0 1 135 264 136 261
434 4 2 0 1 120 214 256 121
435 4 2 0 1 116 114 3 223
436 4 2 0 1 262 239 191 161
437 4 2 0 1 135 206 140 203
438 4 2 0 1 136 141 191 264
439 4 2 0 1 26 141 34 32
440 4 2 0 1 220 178 137 176
441 4 2 0 1 134 131 126 175
442 4 2 0 1 124 259 125 119
443 4 2 0 1 275 2 16 267
444 4 2 0 1 132 124 126 131
445 4 2 0 1 132 125 124 130
446 4 2 0 1 129 261 262 124
447 4 2 0 1 124 261 260 199
448 4 2 0 1 129 130 262 136
449 4 2 0 1 127 120 186 123
450 4 2 0 1 127 186 120 256
451 4 2 0 1 261 191 264 136
452 4 2 0 1 263 215 239 240
453 4 2 0 1 269 2 1 13
454 4 2 0 1 178 289 142 137
455 4 2 0 1 124 129 22 131
456 4 2 0 1 125 240 256 215
457 4 2 0 1 263 240 262 125
458 4 2 0 1 2 115 113 114
459 4 2 0 1 137 129 287 128
460 4 2 0 1 4 13 1 2
461 4 2 0 1 220 142 178 33
462 4 2 0 1 221 115 121 113
463 4 2 0 1 180 117 112 198
464 4 2 0 1 238 116 117 164
465 4 2 0 1 284 215 239 23
466 4 2 0 1 263 215 23 239
467 4 2 0 1 221 269 1 13
468 4 2 0 1 221 1 269 15
469 4 2 0 1 113 269 2 270
470 4 2 0 1 263 239 23 262
471 4 2 0 1 113 269 214 221
472 4 2 0 1 113 121 214 120
473 4 2 0 1 113 115 121 120
474 4 2 0 1 113 13 221 115
475 4 2 0 1 113 221 13 269
476 4 2 0 1 115 113 13 2
477 4 2 0 1 113 13 2 269
478 4 2 0 1 124 125 263 262
479 4 2 0 1 114 267 278 111
480 4 2 0 1 138 131 137 129
481 4 2 0 1 227 173 172 21
482 4 2 0 1 259 120 16 271
483 4 2 0 1 246 266 111 0
484 4 2 0 1 114 120 115 113
485 4 2 0 1 16 270 113 2
486 4 2 0 1 275 111 0 3
487 4 2 0 1 207 40 149 148
488 4 2 0 1 259 263 120 271
489 4 2 0 1 114 267 111 223
490 4 2 0 1 119 125 120 259
491 4 2 0 1 261 136 262 191
492 4 2 0 1 261 262 136 129
493 4 2 0 1 261 124 260 262
494 4 2 0 1 260 124 263 262
495 4 2 0 1 135 128 206 200
496 4 2 0 1 194 197 30 195
497 4 2 0 1 194 197 196 30
498 4 2 0 1 201 200 128 199
499 4 2 0 1 140 192 204 194
500 4 2 0 1 140 203 204 192
501 4 2 0 1 144 194 30 140
502 4 2 0 1 223 267 246 17
503 4 2 0 1 29 196 207 194
504 4 2 0 1 38 222 277 37
505 4 2 0 1 124 199 129 261
506 4 2 0 1 124 199 260 118
507 4 2 0 1 223 17 225 267
508 4 2 0 1 175 172 174 131
509 4 2 0 1 140 206 205 203
510 4 2 0 1 122 119 116 225
511 4 2 0 1 116 223 11 224
512 4 2 0 1 202 22 129 128
513 4 2 0 1 129 136 261 135
514 4 2 0 1 119 267 259 16
515 4 2 0 1 180 2 5 117
516 4 2 0 1 278 114 111 3
517 4 2 0 1 117 180 14 164
518 4 2 0 1 124 118 202 199
519 4 2 0 1 124 260 259 118
520 4 2 0 1 137 128 206 135
521 4 2 0 1 280 142 206 279
522 4 2 0 1 33 290 144 140
523 4 2 0 1 267 266 246 17
524 4 2 0 1 267 118 17 225
525 4 2 0 1 144 149 196 207
526 4 2 0 1 144 196 194 207
527 4 2 0 1 114 225 267 223
528 4 2 0 1 165 3 116 5
529 4 2 0 1 114 225 119 267
530 4 2 0 1 149 196 207 147
531 4 2 0 1 207 148 149 147
532 4 2 0 1 207 204 29 194
533 4 2 0 1 135 264 200 203
534 4 2 0 1 33 177 142 178
535 4 2 0 1 144 149 33 30
536 4 2 0 1 259 267 118 17
537 4 2 0 1 281 207 147 148
538 4 2 0 1 114 2 267 16
539 4 2 0 1 143 137 142 135
540 4 2 0 1 127 124 125 119
541 4 2 0 1 124 22 129 202
542 4 2 0 1 116 5 278 2
543 4 2 0 1 3 111 223 114
544 4 2 0 1 119 259 118 124
545 4 2 0 1 267 246 111 223
546 4 2 0 1 139 161 240 130
547 4 2 0 1 116 165 11 3
548 4 2 0 1 119 225 124 118
549 4 2 0 1 128 261 200 135
550 4 2 0 1 207 272 40 148
551 4 2 0 1 140 192 264 203
552 4 2 0 1 217 173 122 216
553 4 2 0 1 142 140 279 290
554 4 2 0 1 128 200 261 199
555 4 2 0 1 129 261 199 128
556 4 2 0 1 142 289 178 177
557 4 2 0 1 40 207 290 272
558 4 2 0 1 140 30 193 192
559 4 2 0 1 140 192 194 30
560 4 2 0 1 140 33 141 30
561 4 2 0 1 140 30 144 33
562 4 2 0 1 135 264 140 141
563 4 2 0 1 124 259 260 263
564 4 2 0 1 220 176 137 219
565 4 2 0 1 116 278 5 3
566 4 2 0 1 116 11 223 3
567 4 2 0 1 119 225 114 116
568 4 2 0 1 186 187 134 127
569 4 2 0 1 140 207 205 290
570 4 2 0 1 114 278 267 2
571 4 2 0 1 125 120 259 263
572 4 2 0 1 125 263 259 124
573 4 2 0 1 138 135 136 129
574 4 2 0 1 114 117 2 115
575 4 2 0 1 114 267 119 16
576 4 2 0 1 114 120 113 16
577 4 2 0 1 114 16 119 120
578 4 2 0 1 117 2 116 114
579 4 2 0 1 116 114 2 278
580 4 2 0 1 19 13 198 117
581 4 2 0 1 164 5 116 117
582 4 2 0 1 279 290 140 205
583 4 2 0 1 33 40 285 146
584 4 2 0 1 138 129 130 132
585 4 2 0 1 292 226 172 21
586 4 2 0 1 126 225 122 227
587 4 2 0 1 126 227 226 225
588 4 2 0 1 227 18 122 173
589 4 2 0 1 134 126 217 175
590 4 2 0 1 280 128 206 137
591 4 2 0 1 126 226 22 124
592 4 2 0 1 124 225 226 202
593 4 2 0 1 124 22 202 226
594 4 2 0 1 126 22 131 124
595 4 2 0 1 126 131 22 287
596 4 2 0 1 179 6 116 5
597 4 2 0 1 287 129 131 22
598 4 2 0 1 134 127 187 217
599 4 2 0 1 164 116 179 163
600 4 2 0 1 162 141 34 26
601 4 2 0 1 246 0 111 3
602 4 2 0 1 246 111 223 3
603 4 2 0 1 138 129 132 131
604 4 2 0 1 116 227 225 223
605 4 2 0 1 116 223 225 114
606 4 2 0 1 122 227 225 116
607 4 2 0 1 227 224 223 116
608 4 2 0 1 227 21 18 173
609 4 2 0 1 290 207 144 140
610 4 2 0 1 285 273 272 290
611 4 2 0 1 132 126 124 127
612 4 2 0 1 132 124 125 127
613 4 2 0 1 287 131 129 137
614 4 2 0 1 172 126 227 226
615 4 2 0 1 137 128 135 129
616 4 2 0 1 142 135 137 206
617 4 2 0 1 279 206 205 140
618 4 2 0 1 34 146 40 33
619 4 2 0 1 142 206 140 135
620 4 2 0 1 145 290 285 33
621 4 2 0 1 174 228 131 172
622 4 2 0 1 176 289 137 288
623 4 2 0 1 290 40 144 207
624 4 2 0 1 287 126 226 22
625 4 2 0 1 164 5 117 180
626 4 2 0 1 131 137 287 288
627 4 2 0 1 228 126 172 226
628 4 2 0 1 20 117 123 19
629 4 2 0 1 287 137 128 280
630 4 2 0 1 285 145 33 177
631 4 2 0 1 217 216 122 123
632 4 2 0 1 21 227 226 172
633 4 2 0 1 173 122 227 126
634 4 2 0 1 173 126 227 172
635 4 2 0 1 139 132 138 130
636 4 2 0 1 7 6 12 8
637 4 2 0 1 18 116 227 122
638 4 2 0 1 137 288 280 287
639 4 2 0 1 18 216 116 122
640 4 2 0 1 179 6 12 116
641 4 2 0 1 127 120 119 125
642 4 2 0 1 217 216 123 238
643 4 2 0 1 137 288 289 280
644 4 2 0 1 33 177 145 290
645 4 2 0 1 285 273 290 145
646 4 2 0 1 177 294 289 178
647 4 2 0 1 142 280 289 279
648 4 2 0 1 142 137 289 280
649 4 2 0 1 176 288 131 174
650 4 2 0 1 176 137 131 288
651 4 2 0 1 24 242 139 134
652 4 2 0 1 146 36 237 285
653 4 2 0 1 143 141 33 34
654 4 2 0 1 143 135 138 137
655 4 2 0 1 143 136 135 141
656 4 2 0 1 220 178 36 33
657 4 2 0 1 220 138 137 143
658 4 2 0 1 164 14 9 180
659 4 2 0 1 176 175 174 131
660 4 2 0 1 142 290 177 33
661 4 2 0 1 138 129 137 135
662 4 2 0 1 163 116 18 216
663 4 2 0 1 127 119 126 124
664 4 2 0 1 116 11 165 6
665 4 2 0 1 163 188 18 116
666 4 2 0 1 116 224 188 227
667 4 2 0 1 116 12 188 224
668 4 2 0 1 188 12 116 179
669 4 2 0 1 123 114 117 116
670 4 2 0 1 163 116 179 188
671 4 2 0 1 163 179 8 188
672 4 2 0 1 112 198 117 274
673 4 2 0 1 127 119 123 122
674 4 2 0 1 20 274 14 117
675 4 2 0 1 123 120 115 114
676 4 2 0 1 217 126 127 122
677 4 2 0 1 238 163 116 164
678 4 2 0 1 127 119 120 123
679 4 2 0 1 181 13 2 180
680 4 2 0 1 180 117 198 13
681 4 2 0 1 180 9 112 14
682 4 2 0 1 123 119 120 114
683 4 2 0 1 180 2 117 13
684 4 2 0 1 8 164 9 179
685 4 2 0 1 181 13 180 198
686 4 2 0 1 19 120 256 121
687 4 2 0 1 238 117 116 123
688 4 2 0 1 217 123 122 127
689 4 2 0 1 217 122 173 126
690 4 2 0 1 220 137 138 219
691 4 2 0 1 14 117 112 180
692 4 2 0 1 134 132 131 138
693 4 2 0 1 243 134 186 187
694 4 2 0 1 238 216 123 116
695 4 2 0 1 238 116 163 216
696 4 2 0 1 134 126 127 217
697 4 2 0 1 19 123 187 186
698 4 2 0 1 187 123 20 217
699 4 2 0 1 187 127 123 217
700 4 2 0 1 187 123 127 186
701 4 2 0 1 220 137 142 143
702 4 2 0 1 219 134 131 138
703 4 2 0 1 219 137 131 176
704 4 2 0 1 132 131 129 124
705 4 2 0 1 162 141 161 136
706 4 2 0 1 219 175 176 131
707 4 2 0 1 265 237 245 45
708 4 2 0 1 162 35 26 34
709 4 2 0 1 139 134 138 132
710 4 2 0 1 24 134 139 133
711 4 2 0 1 219 131 137 138
712 4 2 0 1 132 134 127 133
713 4 2 0 1 20 238 217 123
714 4 2 0 1 220 33 143 142
715 4 2 0 1 220 142 137 178
716 4 2 0 1 133 139 132 134
717 4 2 0 1 27 162 138 143
718 4 2 0 1 27 143 138 220
719 4 2 0 1 27 219 220 138
720 4 2 0 1 265 146 34 244
721 4 2 0 1 139 138 134 242
722 4 2 0 1 28 34 35 162
723 4 2 0 1 28 34 244 265
724 4 2 0 1 133 125 127 132
725 4 2 0 1 34 146 220 244
726 4 2 0 1 28 220 27 244
727 4 2 0 1 28 34 220 244
728 4 2 0 1 28 143 162 27
729 4 2 0 1 28 220 143 27
730 4 2 0 1 28 162 143 34
731 4 2 0 1 133 186 127 256
732 4 2 0 1 133 125 132 130
733 4 2 0 1 133 256 125 240
734 4 2 0 1 139 162 138 27
735 4 2 0 1 139 161 130 136
736 4 2 0 1 139 136 130 138
737 4 2 0 1 243 24 134 242
738 4 2 0 1 139 138 162 136
739 4 2 0 1 139 161 136 162
740 4 2 0 1 134 219 242 138
741 4 2 0 1 133 125 256 127
742 4 2 0 1 24 134 186 243
743 4 2 0 1 133 186 134 127
744 4 2 0 1 24 161 240 139
745 4 2 0 1 24 240 133 139
746 4 2 0 1 274 14 117 112
747 4 2 0 1 10 112 181 9
748 4 2 0 1 10 112 274 247
749 4 2 0 1 19 256 120 186
750 4 2 0 1 19 186 120 123
751 4 2 0 1 19 121 115 120
752 4 2 0 1 19 120 115 123
753 4 2 0 1 10 112 247 181
754 4 2 0 1 181 112 198 180
755 4 2 0 1 181 9 112 180
756 4 2 0 1 20 14 238 117
757 4 2 0 1 14 117 164 238
758 4 2 0 1 19 274 117 198
759 4 2 0 1 20 274 117 19
760 4 2 0 1 160 38 37 32
761 4 2 0 1 56 154 230 79
762 4 2 0 1 230 154 56 55
763 4 2 0 1 230 154 190 80
764 4 2 0 1 230 52 154 55
765 4 2 0 1 230 189 154 51
766 4 2 0 1 255 284 283 215
767 4 2 0 1 139 161 162 24
768 4 2 0 1 24 162 139 27
769 4 2 0 1 24 139 242 27
770 4 2 0 1 270 16 113 269
771 4 2 0 1 2 270 269 1
772 4 2 0 1 188 7 12 8
773 4 2 0 1 268 222 277 38
774 4 2 0 1 268 51 222 213
775 4 2 0 1 268 222 196 213
776 4 2 0 1 44 48 63 62
777 4 2 0 1 44 45 185 62
778 4 2 0 1 286 108 234 102
779 4 2 0 1 6 165 3 11
780 4 2 0 1 5 116 165 6
781 4 2 0 1 171 156 169 76
782 4 2 0 1 169 156 154 76
783 4 2 0 1 168 189 154 190
784 4 2 0 1 168 169 154 189
785 4 2 0 1 168 154 156 190
786 4 2 0 1 168 156 86 190
787 4 2 0 1 171 100 76 88
788 4 2 0 1 293 176 174 288
789 4 2 0 1 293 178 289 294
790 4 2 0 1 177 285 36 33
791 4 2 0 1 293 178 176 289
792 4 2 0 1 177 142 289 290
793 4 2 0 1 173 217 126 175
794 4 2 0 1 274 14 112 9
795 4 2 0 1 247 198 112 274
796 4 2 0 1 107 182 158 184
797 4 2 0 1 167 182 158 104
798 4 2 0 1 182 183 167 158
799 4 2 0 1 78 167 182 183
800 4 2 0 1 184 183 158 107
801 4 2 0 1 169 170 154 65
802 4 2 0 1 68 76 170 81
803 4 2 0 1 68 170 72 81
804 4 2 0 1 277 54 276 65
805 4 2 0 1 43 54 277 53
806 4 2 0 1 244 237 146 36
807 4 2 0 1 244 265 237 245
808 4 2 0 1 242 243 218 134
809 4 2 0 1 24 186 134 133
810 4 2 0 1 242 134 218 219
811 4 2 0 1 173 216 18 122
812 4 2 0 1 188 227 21 18
813 4 2 0 1 170 169 154 76
814 4 2 0 1 65 154 189 51
815 4 2 0 1 25 248 191 26
816 4 2 0 1 213 196 147 212
817 4 2 0 1 247 181 198 13
818 4 2 0 1 204 140 205 203
819 4 2 0 1 207 148 281 272
820 4 2 0 1 201 202 128 22
821 4 2 0 1 206 128 201 200
822 4 2 0 1 201 202 199 128
823 4 2 0 1 22 287 128 280
824 4 2 0 1 147 29 209 208
825 4 2 0 1 204 207 205 140
826 4 2 0 1 209 147 212 42
827 4 2 0 1 281 147 42 148
828 4 2 0 1 147 212 208 209
829 4 2 0 1 275 267 111 278
830 4 2 0 1 247 181 13 4
831 4 2 0 1 221 214 113 121
832 4 2 0 1 211 249 152 70
833 4 2 0 1 39 285 145 273
834 4 2 0 1 185 150 237 47
835 4 2 0 1 46 211 258 257
836 4 2 0 1 39 273 210 285
837 4 2 0 1 296 150 45 61
838 4 2 0 1 196 147 208 29
839 4 2 0 1 196 147 212 208
840 4 2 0 1 210 46 39 257
841 4 2 0 1 218 243 187 134
842 4 2 0 1 134 219 217 218
843 4 2 0 1 218 217 134 187
844 4 2 0 1 239 215 255 240
845 4 2 0 1 221 121 115 19
846 4 2 0 1 221 269 214 15
847 4 2 0 1 228 287 126 226
848 4 2 0 1 287 126 131 228
849 4 2 0 1 292 228 172 226
850 4 2 0 1 199 118 202 17
851 4 2 0 1 227 18 188 116
852 4 2 0 1 174 292 293 291
853 4 2 0 1 182 104 167 78
854 4 2 0 1 108 234 85 84
855 4 2 0 1 235 67 64 71
856 4 2 0 1 235 64 67 50
857 4 2 0 1 74 84 232 70
858 4 2 0 1 64 71 67 166
859 4 2 0 1 219 134 217 175
860 4 2 0 1 254 102 106 93
861 4 2 0 1 107 106 158 104
862 4 2 0 1 274 112 10 9
863 4 2 0 1 275 278 111 3
864 4 2 0 1 265 146 237 45
865 4 2 0 1 28 35 34 265
866 4 2 0 1 267 246 266 111
867 4 2 0 1 246 266 0 17
868 4 2 0 1 65 189 154 169
869 4 2 0 1 211 152 258 70
870 4 2 0 1 250 153 47 211
871 4 2 0 1 109 159 102 110
872 4 2 0 1 62 253 153 47
873 4 2 0 1 250 47 153 253
874 4 2 0 1 24 133 240 256
875 4 2 0 1 186 133 24 256
876 4 2 0 1 255 256 215 214
877 4 2 0 1 240 215 255 256
878 4 2 0 1 258 70 152 236
879 4 2 0 1 17 118 260 199
880 4 2 0 1 260 118 17 259
881 4 2 0 1 88 87 171 100
882 4 2 0 1 84 251 232 85
883 4 2 0 1 84 232 251 74
884 4 2 0 1 38 31 37 32
885 4 2 0 1 248 195 31 37
886 4 2 0 1 37 32 31 248
887 4 2 0 1 111 275 266 267
888 4 2 0 1 266 111 0 275
889 4 2 0 1 75 94 98 95
890 4 2 0 1 268 53 222 52
891 4 2 0 1 16 113 269 214
892 4 2 0 1 16 271 120 214
893 4 2 0 1 290 142 289 279
894 4 2 0 1 253 82 77 99
895 4 2 0 1 258 152 46 236
896 4 2 0 1 171 89 156 100
897 4 2 0 1 70 74 231 232
898 4 2 0 1 267 278 275 2
899 4 2 0 1 209 29 147 207
900 4 2 0 1 276 170 68 76
901 4 2 0 1 145 177 295 290
902 4 2 0 1 281 147 207 209
903 4 2 0 1 280 128 201 206
904 4 2 0 1 214 221 282 283
905 4 2 0 1 282 221 214 15
906 4 2 0 1 239 26 25 191
907 4 2 0 1 221 214 121 256
908 4 2 0 1 221 214 256 255
909 4 2 0 1 255 215 239 284
910 4 2 0 1 214 283 255 221
911 4 2 0 1 283 215 214 255
912 4 2 0 1 221 121 19 256
913 4 2 0 1 147 209 281 42
914 4 2 0 1 272 148 281 42
915 4 2 0 1 228 126 131 172
916 4 2 0 1 285 145 177 39
917 4 2 0 1 294 289 295 177
918 4 2 0 1 289 290 295 177
919 4 2 0 1 295 177 145 39
920 4 2 0 1 292 174 172 228
921 4 2 0 1 174 228 292 291
922 4 2 0 1 145 295 273 290
923 4 2 0 1 273 295 145 39
924 4 2 0 1 22 128 201 280
925 4 2 0 1 293 176 288 289
926 4 2 0 1 228 131 287 288
927 4 2 0 1 174 291 288 228
928 4 2 0 1 293 174 291 288
929 4 2 0 1 45 237 40 146
930 4 2 0 1 296 150 61 211
931 4 2 0 1 296 150 210 285
$EndElements
